solid ASCII
  facet normal 0.000000e+00 -1.000000e+00 0.000000e+00
    outer loop
      vertex   9.247655e+01 -1.952317e+01 1.100000e+01
      vertex   9.397655e+01 -1.952317e+01 1.100000e+01
      vertex   9.247655e+01 -1.952317e+01 1.300000e+01
    endloop
  endfacet
  facet normal 0.000000e+00 -1.000000e+00 0.000000e+00
    outer loop
      vertex   9.247655e+01 -1.952317e+01 1.300000e+01
      vertex   9.397655e+01 -1.952317e+01 1.100000e+01
      vertex   9.397655e+01 -1.952317e+01 1.300000e+01
    endloop
  endfacet
  facet normal -1.000000e+00 0.000000e+00 0.000000e+00
    outer loop
      vertex   9.247655e+01 -1.671358e+01 1.100000e+01
      vertex   9.247655e+01 -1.952317e+01 1.100000e+01
      vertex   9.247655e+01 -1.671358e+01 1.300000e+01
    endloop
  endfacet
  facet normal -1.000000e+00 -0.000000e+00 0.000000e+00
    outer loop
      vertex   9.247655e+01 -1.671358e+01 1.300000e+01
      vertex   9.247655e+01 -1.952317e+01 1.100000e+01
      vertex   9.247655e+01 -1.952317e+01 1.300000e+01
    endloop
  endfacet
  facet normal 1.000000e+00 0.000000e+00 0.000000e+00
    outer loop
      vertex   9.397655e+01 -1.952317e+01 1.100000e+01
      vertex   9.397655e+01 -1.671358e+01 1.100000e+01
      vertex   9.397655e+01 -1.952317e+01 1.300000e+01
    endloop
  endfacet
  facet normal 1.000000e+00 -0.000000e+00 0.000000e+00
    outer loop
      vertex   9.397655e+01 -1.952317e+01 1.300000e+01
      vertex   9.397655e+01 -1.671358e+01 1.100000e+01
      vertex   9.397655e+01 -1.671358e+01 1.300000e+01
    endloop
  endfacet
  facet normal 0.000000e+00 0.000000e+00 1.000000e+00
    outer loop
      vertex   9.397655e+01 -1.671358e+01 1.300000e+01
      vertex   9.367776e+01 -1.675169e+01 1.300000e+01
      vertex   9.397655e+01 -1.952317e+01 1.300000e+01
    endloop
  endfacet
  facet normal 0.000000e+00 0.000000e+00 1.000000e+00
    outer loop
      vertex   9.397655e+01 -1.952317e+01 1.300000e+01
      vertex   9.367776e+01 -1.675169e+01 1.300000e+01
      vertex   9.337716e+01 -1.677078e+01 1.300000e+01
    endloop
  endfacet
  facet normal 0.000000e+00 0.000000e+00 1.000000e+00
    outer loop
      vertex   9.397655e+01 -1.952317e+01 1.300000e+01
      vertex   9.337716e+01 -1.677078e+01 1.300000e+01
      vertex   9.307595e+01 -1.677078e+01 1.300000e+01
    endloop
  endfacet
  facet normal 0.000000e+00 0.000000e+00 1.000000e+00
    outer loop
      vertex   9.397655e+01 -1.952317e+01 1.300000e+01
      vertex   9.307595e+01 -1.677078e+01 1.300000e+01
      vertex   9.247655e+01 -1.952317e+01 1.300000e+01
    endloop
  endfacet
  facet normal 0.000000e+00 0.000000e+00 1.000000e+00
    outer loop
      vertex   9.247655e+01 -1.952317e+01 1.300000e+01
      vertex   9.307595e+01 -1.677078e+01 1.300000e+01
      vertex   9.277534e+01 -1.675169e+01 1.300000e+01
    endloop
  endfacet
  facet normal 0.000000e+00 0.000000e+00 1.000000e+00
    outer loop
      vertex   9.247655e+01 -1.952317e+01 1.300000e+01
      vertex   9.277534e+01 -1.675169e+01 1.300000e+01
      vertex   9.247655e+01 -1.671358e+01 1.300000e+01
    endloop
  endfacet
  facet normal 0.000000e+00 1.000000e+00 -0.000000e+00
    outer loop
      vertex   9.397655e+01 -4.523168e+00 1.100000e+01
      vertex   9.247655e+01 -4.523168e+00 1.100000e+01
      vertex   9.397655e+01 -4.523168e+00 1.300000e+01
    endloop
  endfacet
  facet normal 0.000000e+00 1.000000e+00 0.000000e+00
    outer loop
      vertex   9.397655e+01 -4.523168e+00 1.300000e+01
      vertex   9.247655e+01 -4.523168e+00 1.100000e+01
      vertex   9.247655e+01 -4.523168e+00 1.300000e+01
    endloop
  endfacet
  facet normal 1.000000e+00 0.000000e+00 0.000000e+00
    outer loop
      vertex   9.397655e+01 -7.332752e+00 1.100000e+01
      vertex   9.397655e+01 -4.523168e+00 1.100000e+01
      vertex   9.397655e+01 -7.332752e+00 1.300000e+01
    endloop
  endfacet
  facet normal 1.000000e+00 -0.000000e+00 0.000000e+00
    outer loop
      vertex   9.397655e+01 -7.332752e+00 1.300000e+01
      vertex   9.397655e+01 -4.523168e+00 1.100000e+01
      vertex   9.397655e+01 -4.523168e+00 1.300000e+01
    endloop
  endfacet
  facet normal -1.000000e+00 0.000000e+00 0.000000e+00
    outer loop
      vertex   9.247655e+01 -4.523168e+00 1.100000e+01
      vertex   9.247655e+01 -7.332752e+00 1.100000e+01
      vertex   9.247655e+01 -4.523168e+00 1.300000e+01
    endloop
  endfacet
  facet normal -1.000000e+00 -0.000000e+00 0.000000e+00
    outer loop
      vertex   9.247655e+01 -4.523168e+00 1.300000e+01
      vertex   9.247655e+01 -7.332752e+00 1.100000e+01
      vertex   9.247655e+01 -7.332752e+00 1.300000e+01
    endloop
  endfacet
  facet normal 0.000000e+00 0.000000e+00 1.000000e+00
    outer loop
      vertex   9.247655e+01 -7.332752e+00 1.300000e+01
      vertex   9.277534e+01 -7.294647e+00 1.300000e+01
      vertex   9.247655e+01 -4.523168e+00 1.300000e+01
    endloop
  endfacet
  facet normal 0.000000e+00 0.000000e+00 1.000000e+00
    outer loop
      vertex   9.247655e+01 -4.523168e+00 1.300000e+01
      vertex   9.277534e+01 -7.294647e+00 1.300000e+01
      vertex   9.307595e+01 -7.275556e+00 1.300000e+01
    endloop
  endfacet
  facet normal 0.000000e+00 0.000000e+00 1.000000e+00
    outer loop
      vertex   9.247655e+01 -4.523168e+00 1.300000e+01
      vertex   9.307595e+01 -7.275556e+00 1.300000e+01
      vertex   9.337716e+01 -7.275556e+00 1.300000e+01
    endloop
  endfacet
  facet normal -0.000000e+00 0.000000e+00 1.000000e+00
    outer loop
      vertex   9.247655e+01 -4.523168e+00 1.300000e+01
      vertex   9.337716e+01 -7.275556e+00 1.300000e+01
      vertex   9.397655e+01 -4.523168e+00 1.300000e+01
    endloop
  endfacet
  facet normal 0.000000e+00 0.000000e+00 1.000000e+00
    outer loop
      vertex   9.397655e+01 -4.523168e+00 1.300000e+01
      vertex   9.337716e+01 -7.275556e+00 1.300000e+01
      vertex   9.367776e+01 -7.294647e+00 1.300000e+01
    endloop
  endfacet
  facet normal 0.000000e+00 0.000000e+00 1.000000e+00
    outer loop
      vertex   9.397655e+01 -4.523168e+00 1.300000e+01
      vertex   9.367776e+01 -7.294647e+00 1.300000e+01
      vertex   9.397655e+01 -7.332752e+00 1.300000e+01
    endloop
  endfacet
  facet normal 0.000000e+00 0.000000e+00 -1.000000e+00
    outer loop
      vertex   9.430561e+01 -7.397356e+00 1.100000e+01
      vertex   9.214750e+01 -7.397356e+00 1.100000e+01
      vertex   9.397655e+01 -7.332752e+00 1.100000e+01
    endloop
  endfacet
  facet normal -0.000000e+00 0.000000e+00 -1.000000e+00
    outer loop
      vertex   9.397655e+01 -7.332752e+00 1.100000e+01
      vertex   9.214750e+01 -7.397356e+00 1.100000e+01
      vertex   9.247655e+01 -7.332752e+00 1.100000e+01
    endloop
  endfacet
  facet normal 0.000000e+00 0.000000e+00 -1.000000e+00
    outer loop
      vertex   9.397655e+01 -7.332752e+00 1.100000e+01
      vertex   9.247655e+01 -7.332752e+00 1.100000e+01
      vertex   9.397655e+01 -4.523168e+00 1.100000e+01
    endloop
  endfacet
  facet normal -0.000000e+00 0.000000e+00 -1.000000e+00
    outer loop
      vertex   9.397655e+01 -4.523168e+00 1.100000e+01
      vertex   9.247655e+01 -7.332752e+00 1.100000e+01
      vertex   9.247655e+01 -4.523168e+00 1.100000e+01
    endloop
  endfacet
  facet normal 0.000000e+00 -0.000000e+00 -1.000000e+00
    outer loop
      vertex   9.214750e+01 -7.397356e+00 1.100000e+01
      vertex   9.430561e+01 -7.397356e+00 1.100000e+01
      vertex   9.182382e+01 -7.485014e+00 1.100000e+01
    endloop
  endfacet
  facet normal 0.000000e+00 0.000000e+00 -1.000000e+00
    outer loop
      vertex   9.182382e+01 -7.485014e+00 1.100000e+01
      vertex   9.430561e+01 -7.397356e+00 1.100000e+01
      vertex   9.462929e+01 -7.485014e+00 1.100000e+01
    endloop
  endfacet
  facet normal 0.000000e+00 -0.000000e+00 -1.000000e+00
    outer loop
      vertex   9.182382e+01 -7.485014e+00 1.100000e+01
      vertex   9.462929e+01 -7.485014e+00 1.100000e+01
      vertex   9.150714e+01 -7.595290e+00 1.100000e+01
    endloop
  endfacet
  facet normal 0.000000e+00 0.000000e+00 -1.000000e+00
    outer loop
      vertex   9.150714e+01 -7.595290e+00 1.100000e+01
      vertex   9.462929e+01 -7.485014e+00 1.100000e+01
      vertex   9.494597e+01 -7.595290e+00 1.100000e+01
    endloop
  endfacet
  facet normal 0.000000e+00 -0.000000e+00 -1.000000e+00
    outer loop
      vertex   9.150714e+01 -7.595290e+00 1.100000e+01
      vertex   9.494597e+01 -7.595290e+00 1.100000e+01
      vertex   9.119902e+01 -7.727635e+00 1.100000e+01
    endloop
  endfacet
  facet normal 0.000000e+00 0.000000e+00 -1.000000e+00
    outer loop
      vertex   9.119902e+01 -7.727635e+00 1.100000e+01
      vertex   9.494597e+01 -7.595290e+00 1.100000e+01
      vertex   9.525409e+01 -7.727635e+00 1.100000e+01
    endloop
  endfacet
  facet normal 0.000000e+00 -0.000000e+00 -1.000000e+00
    outer loop
      vertex   9.119902e+01 -7.727635e+00 1.100000e+01
      vertex   9.525409e+01 -7.727635e+00 1.100000e+01
      vertex   9.090101e+01 -7.881389e+00 1.100000e+01
    endloop
  endfacet
  facet normal 0.000000e+00 0.000000e+00 -1.000000e+00
    outer loop
      vertex   9.090101e+01 -7.881389e+00 1.100000e+01
      vertex   9.525409e+01 -7.727635e+00 1.100000e+01
      vertex   9.555210e+01 -7.881389e+00 1.100000e+01
    endloop
  endfacet
  facet normal 0.000000e+00 -0.000000e+00 -1.000000e+00
    outer loop
      vertex   9.090101e+01 -7.881389e+00 1.100000e+01
      vertex   9.555210e+01 -7.881389e+00 1.100000e+01
      vertex   9.061459e+01 -8.055785e+00 1.100000e+01
    endloop
  endfacet
  facet normal 0.000000e+00 0.000000e+00 -1.000000e+00
    outer loop
      vertex   9.061459e+01 -8.055785e+00 1.100000e+01
      vertex   9.555210e+01 -7.881389e+00 1.100000e+01
      vertex   9.583852e+01 -8.055785e+00 1.100000e+01
    endloop
  endfacet
  facet normal 0.000000e+00 -0.000000e+00 -1.000000e+00
    outer loop
      vertex   9.061459e+01 -8.055785e+00 1.100000e+01
      vertex   9.583852e+01 -8.055785e+00 1.100000e+01
      vertex   9.034118e+01 -8.249954e+00 1.100000e+01
    endloop
  endfacet
  facet normal 0.000000e+00 0.000000e+00 -1.000000e+00
    outer loop
      vertex   9.034118e+01 -8.249954e+00 1.100000e+01
      vertex   9.583852e+01 -8.055785e+00 1.100000e+01
      vertex   9.611192e+01 -8.249954e+00 1.100000e+01
    endloop
  endfacet
  facet normal 0.000000e+00 -0.000000e+00 -1.000000e+00
    outer loop
      vertex   9.034118e+01 -8.249954e+00 1.100000e+01
      vertex   9.611192e+01 -8.249954e+00 1.100000e+01
      vertex   9.008216e+01 -8.462929e+00 1.100000e+01
    endloop
  endfacet
  facet normal 0.000000e+00 0.000000e+00 -1.000000e+00
    outer loop
      vertex   9.008216e+01 -8.462929e+00 1.100000e+01
      vertex   9.611192e+01 -8.249954e+00 1.100000e+01
      vertex   9.637095e+01 -8.462929e+00 1.100000e+01
    endloop
  endfacet
  facet normal 0.000000e+00 -0.000000e+00 -1.000000e+00
    outer loop
      vertex   9.008216e+01 -8.462929e+00 1.100000e+01
      vertex   9.637095e+01 -8.462929e+00 1.100000e+01
      vertex   8.983881e+01 -8.693648e+00 1.100000e+01
    endloop
  endfacet
  facet normal 0.000000e+00 0.000000e+00 -1.000000e+00
    outer loop
      vertex   8.983881e+01 -8.693648e+00 1.100000e+01
      vertex   9.637095e+01 -8.462929e+00 1.100000e+01
      vertex   9.661430e+01 -8.693648e+00 1.100000e+01
    endloop
  endfacet
  facet normal 0.000000e+00 -0.000000e+00 -1.000000e+00
    outer loop
      vertex   8.983881e+01 -8.693648e+00 1.100000e+01
      vertex   9.661430e+01 -8.693648e+00 1.100000e+01
      vertex   8.961235e+01 -8.940961e+00 1.100000e+01
    endloop
  endfacet
  facet normal 0.000000e+00 0.000000e+00 -1.000000e+00
    outer loop
      vertex   8.961235e+01 -8.940961e+00 1.100000e+01
      vertex   9.661430e+01 -8.693648e+00 1.100000e+01
      vertex   9.684076e+01 -8.940961e+00 1.100000e+01
    endloop
  endfacet
  facet normal 0.000000e+00 -0.000000e+00 -1.000000e+00
    outer loop
      vertex   8.961235e+01 -8.940961e+00 1.100000e+01
      vertex   9.684076e+01 -8.940961e+00 1.100000e+01
      vertex   8.940389e+01 -9.203636e+00 1.100000e+01
    endloop
  endfacet
  facet normal 0.000000e+00 0.000000e+00 -1.000000e+00
    outer loop
      vertex   8.940389e+01 -9.203636e+00 1.100000e+01
      vertex   9.684076e+01 -8.940961e+00 1.100000e+01
      vertex   9.704922e+01 -9.203636e+00 1.100000e+01
    endloop
  endfacet
  facet normal 0.000000e+00 -0.000000e+00 -1.000000e+00
    outer loop
      vertex   8.940389e+01 -9.203636e+00 1.100000e+01
      vertex   9.704922e+01 -9.203636e+00 1.100000e+01
      vertex   8.921449e+01 -9.480363e+00 1.100000e+01
    endloop
  endfacet
  facet normal 0.000000e+00 0.000000e+00 -1.000000e+00
    outer loop
      vertex   8.921449e+01 -9.480363e+00 1.100000e+01
      vertex   9.704922e+01 -9.203636e+00 1.100000e+01
      vertex   9.723862e+01 -9.480363e+00 1.100000e+01
    endloop
  endfacet
  facet normal 0.000000e+00 -0.000000e+00 -1.000000e+00
    outer loop
      vertex   8.921449e+01 -9.480363e+00 1.100000e+01
      vertex   9.723862e+01 -9.480363e+00 1.100000e+01
      vertex   8.904509e+01 -9.769764e+00 1.100000e+01
    endloop
  endfacet
  facet normal 0.000000e+00 0.000000e+00 -1.000000e+00
    outer loop
      vertex   8.904509e+01 -9.769764e+00 1.100000e+01
      vertex   9.723862e+01 -9.480363e+00 1.100000e+01
      vertex   9.740802e+01 -9.769764e+00 1.100000e+01
    endloop
  endfacet
  facet normal 0.000000e+00 -0.000000e+00 -1.000000e+00
    outer loop
      vertex   8.904509e+01 -9.769764e+00 1.100000e+01
      vertex   9.740802e+01 -9.769764e+00 1.100000e+01
      vertex   8.889652e+01 -1.007040e+01 1.100000e+01
    endloop
  endfacet
  facet normal 0.000000e+00 0.000000e+00 -1.000000e+00
    outer loop
      vertex   8.889652e+01 -1.007040e+01 1.100000e+01
      vertex   9.740802e+01 -9.769764e+00 1.100000e+01
      vertex   9.755659e+01 -1.007040e+01 1.100000e+01
    endloop
  endfacet
  facet normal 0.000000e+00 -0.000000e+00 -1.000000e+00
    outer loop
      vertex   8.889652e+01 -1.007040e+01 1.100000e+01
      vertex   9.755659e+01 -1.007040e+01 1.100000e+01
      vertex   8.876954e+01 -1.038076e+01 1.100000e+01
    endloop
  endfacet
  facet normal 0.000000e+00 0.000000e+00 -1.000000e+00
    outer loop
      vertex   8.876954e+01 -1.038076e+01 1.100000e+01
      vertex   9.755659e+01 -1.007040e+01 1.100000e+01
      vertex   9.768357e+01 -1.038076e+01 1.100000e+01
    endloop
  endfacet
  facet normal 0.000000e+00 -0.000000e+00 -1.000000e+00
    outer loop
      vertex   8.876954e+01 -1.038076e+01 1.100000e+01
      vertex   9.768357e+01 -1.038076e+01 1.100000e+01
      vertex   8.866477e+01 -1.069931e+01 1.100000e+01
    endloop
  endfacet
  facet normal 0.000000e+00 0.000000e+00 -1.000000e+00
    outer loop
      vertex   8.866477e+01 -1.069931e+01 1.100000e+01
      vertex   9.768357e+01 -1.038076e+01 1.100000e+01
      vertex   9.778834e+01 -1.069931e+01 1.100000e+01
    endloop
  endfacet
  facet normal 0.000000e+00 -0.000000e+00 -1.000000e+00
    outer loop
      vertex   8.866477e+01 -1.069931e+01 1.100000e+01
      vertex   9.778834e+01 -1.069931e+01 1.100000e+01
      vertex   8.858273e+01 -1.102446e+01 1.100000e+01
    endloop
  endfacet
  facet normal 0.000000e+00 0.000000e+00 -1.000000e+00
    outer loop
      vertex   8.858273e+01 -1.102446e+01 1.100000e+01
      vertex   9.778834e+01 -1.069931e+01 1.100000e+01
      vertex   9.787038e+01 -1.102446e+01 1.100000e+01
    endloop
  endfacet
  facet normal 0.000000e+00 -0.000000e+00 -1.000000e+00
    outer loop
      vertex   8.858273e+01 -1.102446e+01 1.100000e+01
      vertex   9.787038e+01 -1.102446e+01 1.100000e+01
      vertex   8.852384e+01 -1.135458e+01 1.100000e+01
    endloop
  endfacet
  facet normal 0.000000e+00 0.000000e+00 -1.000000e+00
    outer loop
      vertex   8.852384e+01 -1.135458e+01 1.100000e+01
      vertex   9.787038e+01 -1.102446e+01 1.100000e+01
      vertex   9.792927e+01 -1.135458e+01 1.100000e+01
    endloop
  endfacet
  facet normal 0.000000e+00 -0.000000e+00 -1.000000e+00
    outer loop
      vertex   8.852384e+01 -1.135458e+01 1.100000e+01
      vertex   9.792927e+01 -1.135458e+01 1.100000e+01
      vertex   8.848839e+01 -1.168804e+01 1.100000e+01
    endloop
  endfacet
  facet normal 0.000000e+00 0.000000e+00 -1.000000e+00
    outer loop
      vertex   8.848839e+01 -1.168804e+01 1.100000e+01
      vertex   9.792927e+01 -1.135458e+01 1.100000e+01
      vertex   9.796472e+01 -1.168804e+01 1.100000e+01
    endloop
  endfacet
  facet normal 0.000000e+00 -0.000000e+00 -1.000000e+00
    outer loop
      vertex   8.848839e+01 -1.168804e+01 1.100000e+01
      vertex   9.796472e+01 -1.168804e+01 1.100000e+01
      vertex   8.847655e+01 -1.202317e+01 1.100000e+01
    endloop
  endfacet
  facet normal 0.000000e+00 0.000000e+00 -1.000000e+00
    outer loop
      vertex   8.847655e+01 -1.202317e+01 1.100000e+01
      vertex   9.796472e+01 -1.168804e+01 1.100000e+01
      vertex   9.797655e+01 -1.202317e+01 1.100000e+01
    endloop
  endfacet
  facet normal 0.000000e+00 0.000000e+00 -1.000000e+00
    outer loop
      vertex   8.847655e+01 -1.202317e+01 1.100000e+01
      vertex   9.797655e+01 -1.202317e+01 1.100000e+01
      vertex   8.848839e+01 -1.235830e+01 1.100000e+01
    endloop
  endfacet
  facet normal 0.000000e+00 0.000000e+00 -1.000000e+00
    outer loop
      vertex   8.848839e+01 -1.235830e+01 1.100000e+01
      vertex   9.797655e+01 -1.202317e+01 1.100000e+01
      vertex   9.247655e+01 -1.671358e+01 1.100000e+01
    endloop
  endfacet
  facet normal 0.000000e+00 0.000000e+00 -1.000000e+00
    outer loop
      vertex   8.848839e+01 -1.235830e+01 1.100000e+01
      vertex   9.247655e+01 -1.671358e+01 1.100000e+01
      vertex   9.214750e+01 -1.664898e+01 1.100000e+01
    endloop
  endfacet
  facet normal -0.000000e+00 0.000000e+00 -1.000000e+00
    outer loop
      vertex   9.796472e+01 -1.235830e+01 1.100000e+01
      vertex   9.740802e+01 -1.427657e+01 1.100000e+01
      vertex   9.797655e+01 -1.202317e+01 1.100000e+01
    endloop
  endfacet
  facet normal 0.000000e+00 0.000000e+00 -1.000000e+00
    outer loop
      vertex   9.797655e+01 -1.202317e+01 1.100000e+01
      vertex   9.740802e+01 -1.427657e+01 1.100000e+01
      vertex   9.723862e+01 -1.456597e+01 1.100000e+01
    endloop
  endfacet
  facet normal 0.000000e+00 0.000000e+00 -1.000000e+00
    outer loop
      vertex   9.797655e+01 -1.202317e+01 1.100000e+01
      vertex   9.723862e+01 -1.456597e+01 1.100000e+01
      vertex   9.704922e+01 -1.484270e+01 1.100000e+01
    endloop
  endfacet
  facet normal -0.000000e+00 0.000000e+00 -1.000000e+00
    outer loop
      vertex   9.792927e+01 -1.269175e+01 1.100000e+01
      vertex   9.787038e+01 -1.302188e+01 1.100000e+01
      vertex   9.796472e+01 -1.235830e+01 1.100000e+01
    endloop
  endfacet
  facet normal 0.000000e+00 0.000000e+00 -1.000000e+00
    outer loop
      vertex   9.796472e+01 -1.235830e+01 1.100000e+01
      vertex   9.787038e+01 -1.302188e+01 1.100000e+01
      vertex   9.778834e+01 -1.334703e+01 1.100000e+01
    endloop
  endfacet
  facet normal 0.000000e+00 0.000000e+00 -1.000000e+00
    outer loop
      vertex   9.796472e+01 -1.235830e+01 1.100000e+01
      vertex   9.778834e+01 -1.334703e+01 1.100000e+01
      vertex   9.768357e+01 -1.366558e+01 1.100000e+01
    endloop
  endfacet
  facet normal -0.000000e+00 0.000000e+00 -1.000000e+00
    outer loop
      vertex   9.768357e+01 -1.366558e+01 1.100000e+01
      vertex   9.755659e+01 -1.397594e+01 1.100000e+01
      vertex   9.796472e+01 -1.235830e+01 1.100000e+01
    endloop
  endfacet
  facet normal 0.000000e+00 0.000000e+00 -1.000000e+00
    outer loop
      vertex   9.796472e+01 -1.235830e+01 1.100000e+01
      vertex   9.755659e+01 -1.397594e+01 1.100000e+01
      vertex   9.740802e+01 -1.427657e+01 1.100000e+01
    endloop
  endfacet
  facet normal -0.000000e+00 0.000000e+00 -1.000000e+00
    outer loop
      vertex   9.704922e+01 -1.484270e+01 1.100000e+01
      vertex   9.684076e+01 -1.510538e+01 1.100000e+01
      vertex   9.797655e+01 -1.202317e+01 1.100000e+01
    endloop
  endfacet
  facet normal 0.000000e+00 0.000000e+00 -1.000000e+00
    outer loop
      vertex   9.797655e+01 -1.202317e+01 1.100000e+01
      vertex   9.684076e+01 -1.510538e+01 1.100000e+01
      vertex   9.661430e+01 -1.535269e+01 1.100000e+01
    endloop
  endfacet
  facet normal 0.000000e+00 0.000000e+00 -1.000000e+00
    outer loop
      vertex   9.797655e+01 -1.202317e+01 1.100000e+01
      vertex   9.661430e+01 -1.535269e+01 1.100000e+01
      vertex   9.637095e+01 -1.558341e+01 1.100000e+01
    endloop
  endfacet
  facet normal -0.000000e+00 0.000000e+00 -1.000000e+00
    outer loop
      vertex   9.637095e+01 -1.558341e+01 1.100000e+01
      vertex   9.611192e+01 -1.579638e+01 1.100000e+01
      vertex   9.797655e+01 -1.202317e+01 1.100000e+01
    endloop
  endfacet
  facet normal 0.000000e+00 0.000000e+00 -1.000000e+00
    outer loop
      vertex   9.797655e+01 -1.202317e+01 1.100000e+01
      vertex   9.611192e+01 -1.579638e+01 1.100000e+01
      vertex   9.583852e+01 -1.599055e+01 1.100000e+01
    endloop
  endfacet
  facet normal 0.000000e+00 0.000000e+00 -1.000000e+00
    outer loop
      vertex   9.797655e+01 -1.202317e+01 1.100000e+01
      vertex   9.583852e+01 -1.599055e+01 1.100000e+01
      vertex   9.555210e+01 -1.616495e+01 1.100000e+01
    endloop
  endfacet
  facet normal -0.000000e+00 0.000000e+00 -1.000000e+00
    outer loop
      vertex   9.555210e+01 -1.616495e+01 1.100000e+01
      vertex   9.525409e+01 -1.631870e+01 1.100000e+01
      vertex   9.797655e+01 -1.202317e+01 1.100000e+01
    endloop
  endfacet
  facet normal 0.000000e+00 0.000000e+00 -1.000000e+00
    outer loop
      vertex   9.797655e+01 -1.202317e+01 1.100000e+01
      vertex   9.525409e+01 -1.631870e+01 1.100000e+01
      vertex   9.494597e+01 -1.645105e+01 1.100000e+01
    endloop
  endfacet
  facet normal 0.000000e+00 0.000000e+00 -1.000000e+00
    outer loop
      vertex   9.797655e+01 -1.202317e+01 1.100000e+01
      vertex   9.494597e+01 -1.645105e+01 1.100000e+01
      vertex   9.462929e+01 -1.656132e+01 1.100000e+01
    endloop
  endfacet
  facet normal -0.000000e+00 0.000000e+00 -1.000000e+00
    outer loop
      vertex   9.462929e+01 -1.656132e+01 1.100000e+01
      vertex   9.430561e+01 -1.664898e+01 1.100000e+01
      vertex   9.797655e+01 -1.202317e+01 1.100000e+01
    endloop
  endfacet
  facet normal 0.000000e+00 0.000000e+00 -1.000000e+00
    outer loop
      vertex   9.797655e+01 -1.202317e+01 1.100000e+01
      vertex   9.430561e+01 -1.664898e+01 1.100000e+01
      vertex   9.397655e+01 -1.671358e+01 1.100000e+01
    endloop
  endfacet
  facet normal 0.000000e+00 0.000000e+00 -1.000000e+00
    outer loop
      vertex   9.797655e+01 -1.202317e+01 1.100000e+01
      vertex   9.397655e+01 -1.671358e+01 1.100000e+01
      vertex   9.247655e+01 -1.671358e+01 1.100000e+01
    endloop
  endfacet
  facet normal 0.000000e+00 0.000000e+00 -1.000000e+00
    outer loop
      vertex   9.247655e+01 -1.671358e+01 1.100000e+01
      vertex   9.397655e+01 -1.671358e+01 1.100000e+01
      vertex   9.247655e+01 -1.952317e+01 1.100000e+01
    endloop
  endfacet
  facet normal 0.000000e+00 0.000000e+00 -1.000000e+00
    outer loop
      vertex   9.247655e+01 -1.952317e+01 1.100000e+01
      vertex   9.397655e+01 -1.671358e+01 1.100000e+01
      vertex   9.397655e+01 -1.952317e+01 1.100000e+01
    endloop
  endfacet
  facet normal 0.000000e+00 0.000000e+00 -1.000000e+00
    outer loop
      vertex   9.214750e+01 -1.664898e+01 1.100000e+01
      vertex   9.182382e+01 -1.656132e+01 1.100000e+01
      vertex   8.848839e+01 -1.235830e+01 1.100000e+01
    endloop
  endfacet
  facet normal 0.000000e+00 0.000000e+00 -1.000000e+00
    outer loop
      vertex   8.848839e+01 -1.235830e+01 1.100000e+01
      vertex   9.182382e+01 -1.656132e+01 1.100000e+01
      vertex   9.150714e+01 -1.645105e+01 1.100000e+01
    endloop
  endfacet
  facet normal 0.000000e+00 0.000000e+00 -1.000000e+00
    outer loop
      vertex   8.848839e+01 -1.235830e+01 1.100000e+01
      vertex   9.150714e+01 -1.645105e+01 1.100000e+01
      vertex   9.119902e+01 -1.631870e+01 1.100000e+01
    endloop
  endfacet
  facet normal 0.000000e+00 0.000000e+00 -1.000000e+00
    outer loop
      vertex   9.119902e+01 -1.631870e+01 1.100000e+01
      vertex   9.090101e+01 -1.616495e+01 1.100000e+01
      vertex   8.848839e+01 -1.235830e+01 1.100000e+01
    endloop
  endfacet
  facet normal 0.000000e+00 0.000000e+00 -1.000000e+00
    outer loop
      vertex   8.848839e+01 -1.235830e+01 1.100000e+01
      vertex   9.090101e+01 -1.616495e+01 1.100000e+01
      vertex   9.061459e+01 -1.599055e+01 1.100000e+01
    endloop
  endfacet
  facet normal 0.000000e+00 0.000000e+00 -1.000000e+00
    outer loop
      vertex   8.848839e+01 -1.235830e+01 1.100000e+01
      vertex   9.061459e+01 -1.599055e+01 1.100000e+01
      vertex   9.034118e+01 -1.579638e+01 1.100000e+01
    endloop
  endfacet
  facet normal 0.000000e+00 0.000000e+00 -1.000000e+00
    outer loop
      vertex   9.034118e+01 -1.579638e+01 1.100000e+01
      vertex   9.008216e+01 -1.558341e+01 1.100000e+01
      vertex   8.848839e+01 -1.235830e+01 1.100000e+01
    endloop
  endfacet
  facet normal 0.000000e+00 0.000000e+00 -1.000000e+00
    outer loop
      vertex   8.848839e+01 -1.235830e+01 1.100000e+01
      vertex   9.008216e+01 -1.558341e+01 1.100000e+01
      vertex   8.983881e+01 -1.535269e+01 1.100000e+01
    endloop
  endfacet
  facet normal 0.000000e+00 0.000000e+00 -1.000000e+00
    outer loop
      vertex   8.848839e+01 -1.235830e+01 1.100000e+01
      vertex   8.983881e+01 -1.535269e+01 1.100000e+01
      vertex   8.961235e+01 -1.510538e+01 1.100000e+01
    endloop
  endfacet
  facet normal 0.000000e+00 0.000000e+00 -1.000000e+00
    outer loop
      vertex   8.961235e+01 -1.510538e+01 1.100000e+01
      vertex   8.940389e+01 -1.484270e+01 1.100000e+01
      vertex   8.848839e+01 -1.235830e+01 1.100000e+01
    endloop
  endfacet
  facet normal 0.000000e+00 0.000000e+00 -1.000000e+00
    outer loop
      vertex   8.848839e+01 -1.235830e+01 1.100000e+01
      vertex   8.940389e+01 -1.484270e+01 1.100000e+01
      vertex   8.921449e+01 -1.456597e+01 1.100000e+01
    endloop
  endfacet
  facet normal 0.000000e+00 0.000000e+00 -1.000000e+00
    outer loop
      vertex   8.848839e+01 -1.235830e+01 1.100000e+01
      vertex   8.921449e+01 -1.456597e+01 1.100000e+01
      vertex   8.904509e+01 -1.427657e+01 1.100000e+01
    endloop
  endfacet
  facet normal 0.000000e+00 0.000000e+00 -1.000000e+00
    outer loop
      vertex   8.904509e+01 -1.427657e+01 1.100000e+01
      vertex   8.889652e+01 -1.397594e+01 1.100000e+01
      vertex   8.848839e+01 -1.235830e+01 1.100000e+01
    endloop
  endfacet
  facet normal 0.000000e+00 0.000000e+00 -1.000000e+00
    outer loop
      vertex   8.848839e+01 -1.235830e+01 1.100000e+01
      vertex   8.889652e+01 -1.397594e+01 1.100000e+01
      vertex   8.876954e+01 -1.366558e+01 1.100000e+01
    endloop
  endfacet
  facet normal 0.000000e+00 0.000000e+00 -1.000000e+00
    outer loop
      vertex   8.848839e+01 -1.235830e+01 1.100000e+01
      vertex   8.876954e+01 -1.366558e+01 1.100000e+01
      vertex   8.866477e+01 -1.334703e+01 1.100000e+01
    endloop
  endfacet
  facet normal 0.000000e+00 0.000000e+00 -1.000000e+00
    outer loop
      vertex   8.866477e+01 -1.334703e+01 1.100000e+01
      vertex   8.858273e+01 -1.302188e+01 1.100000e+01
      vertex   8.848839e+01 -1.235830e+01 1.100000e+01
    endloop
  endfacet
  facet normal 0.000000e+00 0.000000e+00 -1.000000e+00
    outer loop
      vertex   8.848839e+01 -1.235830e+01 1.100000e+01
      vertex   8.858273e+01 -1.302188e+01 1.100000e+01
      vertex   8.852384e+01 -1.269175e+01 1.100000e+01
    endloop
  endfacet
  facet normal 0.000000e+00 -0.000000e+00 1.000000e+00
    outer loop
      vertex   8.848839e+01 -1.235823e+01 1.800000e+01
      vertex   9.797359e+01 -1.219080e+01 1.800000e+01
      vertex   8.847655e+01 -1.202317e+01 1.800000e+01
    endloop
  endfacet
  facet normal -0.000000e+00 0.000000e+00 1.000000e+00
    outer loop
      vertex   8.847655e+01 -1.202317e+01 1.800000e+01
      vertex   9.797359e+01 -1.219080e+01 1.800000e+01
      vertex   9.797359e+01 -1.185553e+01 1.800000e+01
    endloop
  endfacet
  facet normal 0.000000e+00 0.000000e+00 1.000000e+00
    outer loop
      vertex   8.847655e+01 -1.202317e+01 1.800000e+01
      vertex   9.797359e+01 -1.185553e+01 1.800000e+01
      vertex   8.848839e+01 -1.168811e+01 1.800000e+01
    endloop
  endfacet
  facet normal -0.000000e+00 0.000000e+00 1.000000e+00
    outer loop
      vertex   8.848839e+01 -1.168811e+01 1.800000e+01
      vertex   9.797359e+01 -1.185553e+01 1.800000e+01
      vertex   9.794995e+01 -1.152110e+01 1.800000e+01
    endloop
  endfacet
  facet normal 0.000000e+00 0.000000e+00 1.000000e+00
    outer loop
      vertex   8.848839e+01 -1.168811e+01 1.800000e+01
      vertex   9.794995e+01 -1.152110e+01 1.800000e+01
      vertex   8.852382e+01 -1.135472e+01 1.800000e+01
    endloop
  endfacet
  facet normal -0.000000e+00 0.000000e+00 1.000000e+00
    outer loop
      vertex   8.852382e+01 -1.135472e+01 1.800000e+01
      vertex   9.794995e+01 -1.152110e+01 1.800000e+01
      vertex   9.790276e+01 -1.118917e+01 1.800000e+01
    endloop
  endfacet
  facet normal 0.000000e+00 0.000000e+00 1.000000e+00
    outer loop
      vertex   8.852382e+01 -1.135472e+01 1.800000e+01
      vertex   9.790276e+01 -1.118917e+01 1.800000e+01
      vertex   8.858269e+01 -1.102466e+01 1.800000e+01
    endloop
  endfacet
  facet normal -0.000000e+00 0.000000e+00 1.000000e+00
    outer loop
      vertex   8.858269e+01 -1.102466e+01 1.800000e+01
      vertex   9.790276e+01 -1.118917e+01 1.800000e+01
      vertex   9.783229e+01 -1.086139e+01 1.800000e+01
    endloop
  endfacet
  facet normal 0.000000e+00 0.000000e+00 1.000000e+00
    outer loop
      vertex   8.858269e+01 -1.102466e+01 1.800000e+01
      vertex   9.783229e+01 -1.086139e+01 1.800000e+01
      vertex   8.866469e+01 -1.069957e+01 1.800000e+01
    endloop
  endfacet
  facet normal -0.000000e+00 0.000000e+00 1.000000e+00
    outer loop
      vertex   8.866469e+01 -1.069957e+01 1.800000e+01
      vertex   9.783229e+01 -1.086139e+01 1.800000e+01
      vertex   9.773886e+01 -1.053940e+01 1.800000e+01
    endloop
  endfacet
  facet normal 0.000000e+00 0.000000e+00 1.000000e+00
    outer loop
      vertex   8.866469e+01 -1.069957e+01 1.800000e+01
      vertex   9.773886e+01 -1.053940e+01 1.800000e+01
      vertex   8.876942e+01 -1.038108e+01 1.800000e+01
    endloop
  endfacet
  facet normal -0.000000e+00 0.000000e+00 1.000000e+00
    outer loop
      vertex   8.876942e+01 -1.038108e+01 1.800000e+01
      vertex   9.773886e+01 -1.053940e+01 1.800000e+01
      vertex   9.762296e+01 -1.022480e+01 1.800000e+01
    endloop
  endfacet
  facet normal 0.000000e+00 0.000000e+00 1.000000e+00
    outer loop
      vertex   8.876942e+01 -1.038108e+01 1.800000e+01
      vertex   9.762296e+01 -1.022480e+01 1.800000e+01
      vertex   8.889635e+01 -1.007077e+01 1.800000e+01
    endloop
  endfacet
  facet normal -0.000000e+00 0.000000e+00 1.000000e+00
    outer loop
      vertex   8.889635e+01 -1.007077e+01 1.800000e+01
      vertex   9.762296e+01 -1.022480e+01 1.800000e+01
      vertex   9.748515e+01 -9.919165e+00 1.800000e+01
    endloop
  endfacet
  facet normal 0.000000e+00 0.000000e+00 1.000000e+00
    outer loop
      vertex   8.889635e+01 -1.007077e+01 1.800000e+01
      vertex   9.748515e+01 -9.919165e+00 1.800000e+01
      vertex   8.904486e+01 -9.770183e+00 1.800000e+01
    endloop
  endfacet
  facet normal -0.000000e+00 0.000000e+00 1.000000e+00
    outer loop
      vertex   8.904486e+01 -9.770183e+00 1.800000e+01
      vertex   9.748515e+01 -9.919165e+00 1.800000e+01
      vertex   9.732613e+01 -9.624009e+00 1.800000e+01
    endloop
  endfacet
  facet normal 0.000000e+00 0.000000e+00 1.000000e+00
    outer loop
      vertex   8.904486e+01 -9.770183e+00 1.800000e+01
      vertex   9.732613e+01 -9.624009e+00 1.800000e+01
      vertex   8.921420e+01 -9.480823e+00 1.800000e+01
    endloop
  endfacet
  facet normal -0.000000e+00 0.000000e+00 1.000000e+00
    outer loop
      vertex   8.921420e+01 -9.480823e+00 1.800000e+01
      vertex   9.732613e+01 -9.624009e+00 1.800000e+01
      vertex   9.714668e+01 -9.340805e+00 1.800000e+01
    endloop
  endfacet
  facet normal 0.000000e+00 0.000000e+00 1.000000e+00
    outer loop
      vertex   8.921420e+01 -9.480823e+00 1.800000e+01
      vertex   9.714668e+01 -9.340805e+00 1.800000e+01
      vertex   8.940353e+01 -9.204129e+00 1.800000e+01
    endloop
  endfacet
  facet normal -0.000000e+00 0.000000e+00 1.000000e+00
    outer loop
      vertex   8.940353e+01 -9.204129e+00 1.800000e+01
      vertex   9.714668e+01 -9.340805e+00 1.800000e+01
      vertex   9.694771e+01 -9.070965e+00 1.800000e+01
    endloop
  endfacet
  facet normal 0.000000e+00 0.000000e+00 1.000000e+00
    outer loop
      vertex   8.940353e+01 -9.204129e+00 1.800000e+01
      vertex   9.694771e+01 -9.070965e+00 1.800000e+01
      vertex   8.961190e+01 -8.941479e+00 1.800000e+01
    endloop
  endfacet
  facet normal -0.000000e+00 0.000000e+00 1.000000e+00
    outer loop
      vertex   8.961190e+01 -8.941479e+00 1.800000e+01
      vertex   9.694771e+01 -9.070965e+00 1.800000e+01
      vertex   9.673019e+01 -8.815832e+00 1.800000e+01
    endloop
  endfacet
  facet normal 0.000000e+00 0.000000e+00 1.000000e+00
    outer loop
      vertex   8.961190e+01 -8.941479e+00 1.800000e+01
      vertex   9.673019e+01 -8.815832e+00 1.800000e+01
      vertex   8.983829e+01 -8.694181e+00 1.800000e+01
    endloop
  endfacet
  facet normal -0.000000e+00 0.000000e+00 1.000000e+00
    outer loop
      vertex   8.983829e+01 -8.694181e+00 1.800000e+01
      vertex   9.673019e+01 -8.815832e+00 1.800000e+01
      vertex   9.649522e+01 -8.576678e+00 1.800000e+01
    endloop
  endfacet
  facet normal 0.000000e+00 0.000000e+00 1.000000e+00
    outer loop
      vertex   8.983829e+01 -8.694181e+00 1.800000e+01
      vertex   9.649522e+01 -8.576678e+00 1.800000e+01
      vertex   9.008155e+01 -8.463469e+00 1.800000e+01
    endloop
  endfacet
  facet normal -0.000000e+00 0.000000e+00 1.000000e+00
    outer loop
      vertex   9.008155e+01 -8.463469e+00 1.800000e+01
      vertex   9.649522e+01 -8.576678e+00 1.800000e+01
      vertex   9.624397e+01 -8.354695e+00 1.800000e+01
    endloop
  endfacet
  facet normal 0.000000e+00 0.000000e+00 1.000000e+00
    outer loop
      vertex   9.008155e+01 -8.463469e+00 1.800000e+01
      vertex   9.624397e+01 -8.354695e+00 1.800000e+01
      vertex   9.034048e+01 -8.250491e+00 1.800000e+01
    endloop
  endfacet
  facet normal -0.000000e+00 0.000000e+00 1.000000e+00
    outer loop
      vertex   9.034048e+01 -8.250491e+00 1.800000e+01
      vertex   9.624397e+01 -8.354695e+00 1.800000e+01
      vertex   9.597768e+01 -8.150987e+00 1.800000e+01
    endloop
  endfacet
  facet normal 0.000000e+00 0.000000e+00 1.000000e+00
    outer loop
      vertex   9.034048e+01 -8.250491e+00 1.800000e+01
      vertex   9.597768e+01 -8.150987e+00 1.800000e+01
      vertex   9.061379e+01 -8.056308e+00 1.800000e+01
    endloop
  endfacet
  facet normal -0.000000e+00 0.000000e+00 1.000000e+00
    outer loop
      vertex   9.061379e+01 -8.056308e+00 1.800000e+01
      vertex   9.597768e+01 -8.150987e+00 1.800000e+01
      vertex   9.569769e+01 -7.966571e+00 1.800000e+01
    endloop
  endfacet
  facet normal 0.000000e+00 0.000000e+00 1.000000e+00
    outer loop
      vertex   9.061379e+01 -8.056308e+00 1.800000e+01
      vertex   9.569769e+01 -7.966571e+00 1.800000e+01
      vertex   9.090012e+01 -7.881888e+00 1.800000e+01
    endloop
  endfacet
  facet normal -0.000000e+00 0.000000e+00 1.000000e+00
    outer loop
      vertex   9.090012e+01 -7.881888e+00 1.800000e+01
      vertex   9.569769e+01 -7.966571e+00 1.800000e+01
      vertex   9.540539e+01 -7.802365e+00 1.800000e+01
    endloop
  endfacet
  facet normal 0.000000e+00 0.000000e+00 1.000000e+00
    outer loop
      vertex   9.090012e+01 -7.881888e+00 1.800000e+01
      vertex   9.540539e+01 -7.802365e+00 1.800000e+01
      vertex   9.119804e+01 -7.728100e+00 1.800000e+01
    endloop
  endfacet
  facet normal -0.000000e+00 0.000000e+00 1.000000e+00
    outer loop
      vertex   9.119804e+01 -7.728100e+00 1.800000e+01
      vertex   9.540539e+01 -7.802365e+00 1.800000e+01
      vertex   9.510223e+01 -7.659186e+00 1.800000e+01
    endloop
  endfacet
  facet normal 0.000000e+00 0.000000e+00 1.000000e+00
    outer loop
      vertex   9.119804e+01 -7.728100e+00 1.800000e+01
      vertex   9.510223e+01 -7.659186e+00 1.800000e+01
      vertex   9.150606e+01 -7.595709e+00 1.800000e+01
    endloop
  endfacet
  facet normal -0.000000e+00 0.000000e+00 1.000000e+00
    outer loop
      vertex   9.150606e+01 -7.595709e+00 1.800000e+01
      vertex   9.510223e+01 -7.659186e+00 1.800000e+01
      vertex   9.478973e+01 -7.537748e+00 1.800000e+01
    endloop
  endfacet
  facet normal 0.000000e+00 0.000000e+00 1.000000e+00
    outer loop
      vertex   9.150606e+01 -7.595709e+00 1.800000e+01
      vertex   9.478973e+01 -7.537748e+00 1.800000e+01
      vertex   9.182265e+01 -7.485376e+00 1.800000e+01
    endloop
  endfacet
  facet normal -0.000000e+00 0.000000e+00 1.000000e+00
    outer loop
      vertex   9.182265e+01 -7.485376e+00 1.800000e+01
      vertex   9.478973e+01 -7.537748e+00 1.800000e+01
      vertex   9.446944e+01 -7.438657e+00 1.800000e+01
    endloop
  endfacet
  facet normal 0.000000e+00 0.000000e+00 1.000000e+00
    outer loop
      vertex   9.182265e+01 -7.485376e+00 1.800000e+01
      vertex   9.446944e+01 -7.438657e+00 1.800000e+01
      vertex   9.214624e+01 -7.397650e+00 1.800000e+01
    endloop
  endfacet
  facet normal -0.000000e+00 0.000000e+00 1.000000e+00
    outer loop
      vertex   9.214624e+01 -7.397650e+00 1.800000e+01
      vertex   9.446944e+01 -7.438657e+00 1.800000e+01
      vertex   9.414295e+01 -7.362405e+00 1.800000e+01
    endloop
  endfacet
  facet normal 0.000000e+00 0.000000e+00 1.000000e+00
    outer loop
      vertex   9.214624e+01 -7.397650e+00 1.800000e+01
      vertex   9.414295e+01 -7.362405e+00 1.800000e+01
      vertex   9.247521e+01 -7.332967e+00 1.800000e+01
    endloop
  endfacet
  facet normal -0.000000e+00 0.000000e+00 1.000000e+00
    outer loop
      vertex   9.247521e+01 -7.332967e+00 1.800000e+01
      vertex   9.414295e+01 -7.362405e+00 1.800000e+01
      vertex   9.381190e+01 -7.309373e+00 1.800000e+01
    endloop
  endfacet
  facet normal 0.000000e+00 0.000000e+00 1.000000e+00
    outer loop
      vertex   9.247521e+01 -7.332967e+00 1.800000e+01
      vertex   9.381190e+01 -7.309373e+00 1.800000e+01
      vertex   9.280792e+01 -7.291652e+00 1.800000e+01
    endloop
  endfacet
  facet normal -0.000000e+00 0.000000e+00 1.000000e+00
    outer loop
      vertex   9.280792e+01 -7.291652e+00 1.800000e+01
      vertex   9.381190e+01 -7.309373e+00 1.800000e+01
      vertex   9.347794e+01 -7.279825e+00 1.800000e+01
    endloop
  endfacet
  facet normal 0.000000e+00 0.000000e+00 1.000000e+00
    outer loop
      vertex   9.280792e+01 -7.291652e+00 1.800000e+01
      vertex   9.347794e+01 -7.279825e+00 1.800000e+01
      vertex   9.314272e+01 -7.273908e+00 1.800000e+01
    endloop
  endfacet
  facet normal 0.000000e+00 0.000000e+00 1.000000e+00
    outer loop
      vertex   9.797359e+01 -1.219080e+01 1.800000e+01
      vertex   8.848839e+01 -1.235823e+01 1.800000e+01
      vertex   9.794995e+01 -1.252524e+01 1.800000e+01
    endloop
  endfacet
  facet normal 0.000000e+00 0.000000e+00 1.000000e+00
    outer loop
      vertex   9.794995e+01 -1.252524e+01 1.800000e+01
      vertex   8.848839e+01 -1.235823e+01 1.800000e+01
      vertex   8.852382e+01 -1.269162e+01 1.800000e+01
    endloop
  endfacet
  facet normal 0.000000e+00 0.000000e+00 1.000000e+00
    outer loop
      vertex   9.794995e+01 -1.252524e+01 1.800000e+01
      vertex   8.852382e+01 -1.269162e+01 1.800000e+01
      vertex   9.790276e+01 -1.285717e+01 1.800000e+01
    endloop
  endfacet
  facet normal 0.000000e+00 0.000000e+00 1.000000e+00
    outer loop
      vertex   9.790276e+01 -1.285717e+01 1.800000e+01
      vertex   8.852382e+01 -1.269162e+01 1.800000e+01
      vertex   8.858269e+01 -1.302168e+01 1.800000e+01
    endloop
  endfacet
  facet normal 0.000000e+00 0.000000e+00 1.000000e+00
    outer loop
      vertex   9.790276e+01 -1.285717e+01 1.800000e+01
      vertex   8.858269e+01 -1.302168e+01 1.800000e+01
      vertex   8.866469e+01 -1.334677e+01 1.800000e+01
    endloop
  endfacet
  facet normal -0.000000e+00 0.000000e+00 1.000000e+00
    outer loop
      vertex   8.866469e+01 -1.334677e+01 1.800000e+01
      vertex   8.876942e+01 -1.366526e+01 1.800000e+01
      vertex   9.790276e+01 -1.285717e+01 1.800000e+01
    endloop
  endfacet
  facet normal 0.000000e+00 0.000000e+00 1.000000e+00
    outer loop
      vertex   9.790276e+01 -1.285717e+01 1.800000e+01
      vertex   8.876942e+01 -1.366526e+01 1.800000e+01
      vertex   8.889635e+01 -1.397557e+01 1.800000e+01
    endloop
  endfacet
  facet normal 0.000000e+00 0.000000e+00 1.000000e+00
    outer loop
      vertex   9.790276e+01 -1.285717e+01 1.800000e+01
      vertex   8.889635e+01 -1.397557e+01 1.800000e+01
      vertex   8.904486e+01 -1.427615e+01 1.800000e+01
    endloop
  endfacet
  facet normal -0.000000e+00 0.000000e+00 1.000000e+00
    outer loop
      vertex   8.904486e+01 -1.427615e+01 1.800000e+01
      vertex   8.921420e+01 -1.456551e+01 1.800000e+01
      vertex   9.790276e+01 -1.285717e+01 1.800000e+01
    endloop
  endfacet
  facet normal 0.000000e+00 0.000000e+00 1.000000e+00
    outer loop
      vertex   9.790276e+01 -1.285717e+01 1.800000e+01
      vertex   8.921420e+01 -1.456551e+01 1.800000e+01
      vertex   8.940353e+01 -1.484221e+01 1.800000e+01
    endloop
  endfacet
  facet normal 0.000000e+00 0.000000e+00 1.000000e+00
    outer loop
      vertex   9.790276e+01 -1.285717e+01 1.800000e+01
      vertex   8.940353e+01 -1.484221e+01 1.800000e+01
      vertex   8.961190e+01 -1.510486e+01 1.800000e+01
    endloop
  endfacet
  facet normal -0.000000e+00 0.000000e+00 1.000000e+00
    outer loop
      vertex   8.961190e+01 -1.510486e+01 1.800000e+01
      vertex   8.983829e+01 -1.535216e+01 1.800000e+01
      vertex   9.790276e+01 -1.285717e+01 1.800000e+01
    endloop
  endfacet
  facet normal 0.000000e+00 0.000000e+00 1.000000e+00
    outer loop
      vertex   9.790276e+01 -1.285717e+01 1.800000e+01
      vertex   8.983829e+01 -1.535216e+01 1.800000e+01
      vertex   9.008155e+01 -1.558287e+01 1.800000e+01
    endloop
  endfacet
  facet normal 0.000000e+00 0.000000e+00 1.000000e+00
    outer loop
      vertex   9.790276e+01 -1.285717e+01 1.800000e+01
      vertex   9.008155e+01 -1.558287e+01 1.800000e+01
      vertex   9.034048e+01 -1.579585e+01 1.800000e+01
    endloop
  endfacet
  facet normal -0.000000e+00 0.000000e+00 1.000000e+00
    outer loop
      vertex   9.034048e+01 -1.579585e+01 1.800000e+01
      vertex   9.061379e+01 -1.599003e+01 1.800000e+01
      vertex   9.790276e+01 -1.285717e+01 1.800000e+01
    endloop
  endfacet
  facet normal 0.000000e+00 0.000000e+00 1.000000e+00
    outer loop
      vertex   9.790276e+01 -1.285717e+01 1.800000e+01
      vertex   9.061379e+01 -1.599003e+01 1.800000e+01
      vertex   9.090012e+01 -1.616445e+01 1.800000e+01
    endloop
  endfacet
  facet normal 0.000000e+00 0.000000e+00 1.000000e+00
    outer loop
      vertex   9.790276e+01 -1.285717e+01 1.800000e+01
      vertex   9.090012e+01 -1.616445e+01 1.800000e+01
      vertex   9.119804e+01 -1.631824e+01 1.800000e+01
    endloop
  endfacet
  facet normal -0.000000e+00 0.000000e+00 1.000000e+00
    outer loop
      vertex   9.119804e+01 -1.631824e+01 1.800000e+01
      vertex   9.150606e+01 -1.645063e+01 1.800000e+01
      vertex   9.790276e+01 -1.285717e+01 1.800000e+01
    endloop
  endfacet
  facet normal 0.000000e+00 0.000000e+00 1.000000e+00
    outer loop
      vertex   9.790276e+01 -1.285717e+01 1.800000e+01
      vertex   9.150606e+01 -1.645063e+01 1.800000e+01
      vertex   9.182265e+01 -1.656096e+01 1.800000e+01
    endloop
  endfacet
  facet normal 0.000000e+00 0.000000e+00 1.000000e+00
    outer loop
      vertex   9.790276e+01 -1.285717e+01 1.800000e+01
      vertex   9.182265e+01 -1.656096e+01 1.800000e+01
      vertex   9.214624e+01 -1.664869e+01 1.800000e+01
    endloop
  endfacet
  facet normal -0.000000e+00 0.000000e+00 1.000000e+00
    outer loop
      vertex   9.214624e+01 -1.664869e+01 1.800000e+01
      vertex   9.247521e+01 -1.671337e+01 1.800000e+01
      vertex   9.790276e+01 -1.285717e+01 1.800000e+01
    endloop
  endfacet
  facet normal 0.000000e+00 0.000000e+00 1.000000e+00
    outer loop
      vertex   9.790276e+01 -1.285717e+01 1.800000e+01
      vertex   9.247521e+01 -1.671337e+01 1.800000e+01
      vertex   9.280792e+01 -1.675468e+01 1.800000e+01
    endloop
  endfacet
  facet normal 0.000000e+00 0.000000e+00 1.000000e+00
    outer loop
      vertex   9.790276e+01 -1.285717e+01 1.800000e+01
      vertex   9.280792e+01 -1.675468e+01 1.800000e+01
      vertex   9.314272e+01 -1.677243e+01 1.800000e+01
    endloop
  endfacet
  facet normal 0.000000e+00 0.000000e+00 1.000000e+00
    outer loop
      vertex   9.314272e+01 -1.677243e+01 1.800000e+01
      vertex   9.347794e+01 -1.676651e+01 1.800000e+01
      vertex   9.790276e+01 -1.285717e+01 1.800000e+01
    endloop
  endfacet
  facet normal 0.000000e+00 0.000000e+00 1.000000e+00
    outer loop
      vertex   9.790276e+01 -1.285717e+01 1.800000e+01
      vertex   9.347794e+01 -1.676651e+01 1.800000e+01
      vertex   9.783229e+01 -1.318495e+01 1.800000e+01
    endloop
  endfacet
  facet normal 0.000000e+00 0.000000e+00 1.000000e+00
    outer loop
      vertex   9.783229e+01 -1.318495e+01 1.800000e+01
      vertex   9.347794e+01 -1.676651e+01 1.800000e+01
      vertex   9.381190e+01 -1.673696e+01 1.800000e+01
    endloop
  endfacet
  facet normal 0.000000e+00 0.000000e+00 1.000000e+00
    outer loop
      vertex   9.783229e+01 -1.318495e+01 1.800000e+01
      vertex   9.381190e+01 -1.673696e+01 1.800000e+01
      vertex   9.414295e+01 -1.668393e+01 1.800000e+01
    endloop
  endfacet
  facet normal 0.000000e+00 0.000000e+00 1.000000e+00
    outer loop
      vertex   9.414295e+01 -1.668393e+01 1.800000e+01
      vertex   9.446944e+01 -1.660768e+01 1.800000e+01
      vertex   9.783229e+01 -1.318495e+01 1.800000e+01
    endloop
  endfacet
  facet normal 0.000000e+00 0.000000e+00 1.000000e+00
    outer loop
      vertex   9.783229e+01 -1.318495e+01 1.800000e+01
      vertex   9.446944e+01 -1.660768e+01 1.800000e+01
      vertex   9.478973e+01 -1.650859e+01 1.800000e+01
    endloop
  endfacet
  facet normal 0.000000e+00 0.000000e+00 1.000000e+00
    outer loop
      vertex   9.783229e+01 -1.318495e+01 1.800000e+01
      vertex   9.478973e+01 -1.650859e+01 1.800000e+01
      vertex   9.510223e+01 -1.638715e+01 1.800000e+01
    endloop
  endfacet
  facet normal 0.000000e+00 0.000000e+00 1.000000e+00
    outer loop
      vertex   9.510223e+01 -1.638715e+01 1.800000e+01
      vertex   9.540539e+01 -1.624397e+01 1.800000e+01
      vertex   9.783229e+01 -1.318495e+01 1.800000e+01
    endloop
  endfacet
  facet normal 0.000000e+00 0.000000e+00 1.000000e+00
    outer loop
      vertex   9.783229e+01 -1.318495e+01 1.800000e+01
      vertex   9.540539e+01 -1.624397e+01 1.800000e+01
      vertex   9.569769e+01 -1.607977e+01 1.800000e+01
    endloop
  endfacet
  facet normal 0.000000e+00 0.000000e+00 1.000000e+00
    outer loop
      vertex   9.783229e+01 -1.318495e+01 1.800000e+01
      vertex   9.569769e+01 -1.607977e+01 1.800000e+01
      vertex   9.597768e+01 -1.589535e+01 1.800000e+01
    endloop
  endfacet
  facet normal 0.000000e+00 0.000000e+00 1.000000e+00
    outer loop
      vertex   9.597768e+01 -1.589535e+01 1.800000e+01
      vertex   9.624397e+01 -1.569164e+01 1.800000e+01
      vertex   9.783229e+01 -1.318495e+01 1.800000e+01
    endloop
  endfacet
  facet normal 0.000000e+00 0.000000e+00 1.000000e+00
    outer loop
      vertex   9.783229e+01 -1.318495e+01 1.800000e+01
      vertex   9.624397e+01 -1.569164e+01 1.800000e+01
      vertex   9.649522e+01 -1.546966e+01 1.800000e+01
    endloop
  endfacet
  facet normal 0.000000e+00 0.000000e+00 1.000000e+00
    outer loop
      vertex   9.783229e+01 -1.318495e+01 1.800000e+01
      vertex   9.649522e+01 -1.546966e+01 1.800000e+01
      vertex   9.673019e+01 -1.523050e+01 1.800000e+01
    endloop
  endfacet
  facet normal 0.000000e+00 0.000000e+00 1.000000e+00
    outer loop
      vertex   9.673019e+01 -1.523050e+01 1.800000e+01
      vertex   9.694771e+01 -1.497537e+01 1.800000e+01
      vertex   9.783229e+01 -1.318495e+01 1.800000e+01
    endloop
  endfacet
  facet normal 0.000000e+00 0.000000e+00 1.000000e+00
    outer loop
      vertex   9.783229e+01 -1.318495e+01 1.800000e+01
      vertex   9.694771e+01 -1.497537e+01 1.800000e+01
      vertex   9.714668e+01 -1.470553e+01 1.800000e+01
    endloop
  endfacet
  facet normal 0.000000e+00 0.000000e+00 1.000000e+00
    outer loop
      vertex   9.783229e+01 -1.318495e+01 1.800000e+01
      vertex   9.714668e+01 -1.470553e+01 1.800000e+01
      vertex   9.732613e+01 -1.442233e+01 1.800000e+01
    endloop
  endfacet
  facet normal 0.000000e+00 0.000000e+00 1.000000e+00
    outer loop
      vertex   9.732613e+01 -1.442233e+01 1.800000e+01
      vertex   9.748515e+01 -1.412717e+01 1.800000e+01
      vertex   9.783229e+01 -1.318495e+01 1.800000e+01
    endloop
  endfacet
  facet normal 0.000000e+00 0.000000e+00 1.000000e+00
    outer loop
      vertex   9.783229e+01 -1.318495e+01 1.800000e+01
      vertex   9.748515e+01 -1.412717e+01 1.800000e+01
      vertex   9.762296e+01 -1.382153e+01 1.800000e+01
    endloop
  endfacet
  facet normal 0.000000e+00 0.000000e+00 1.000000e+00
    outer loop
      vertex   9.783229e+01 -1.318495e+01 1.800000e+01
      vertex   9.762296e+01 -1.382153e+01 1.800000e+01
      vertex   9.773886e+01 -1.350694e+01 1.800000e+01
    endloop
  endfacet
  facet normal 1.754382e-01 -9.844905e-01 0.000000e+00
    outer loop
      vertex   9.397655e+01 -1.671358e+01 1.100000e+01
      vertex   9.414295e+01 -1.668393e+01 1.800000e+01
      vertex   9.397655e+01 -1.671358e+01 1.300000e+01
    endloop
  endfacet
  facet normal 1.581774e-01 -9.874105e-01 5.917518e-04
    outer loop
      vertex   9.397655e+01 -1.671358e+01 1.300000e+01
      vertex   9.414295e+01 -1.668393e+01 1.800000e+01
      vertex   9.381190e+01 -1.673696e+01 1.800000e+01
    endloop
  endfacet
  facet normal 1.265067e-01 -9.919656e-01 -4.724584e-04
    outer loop
      vertex   9.397655e+01 -1.671358e+01 1.300000e+01
      vertex   9.381190e+01 -1.673696e+01 1.800000e+01
      vertex   9.367776e+01 -1.675169e+01 1.300000e+01
    endloop
  endfacet
  facet normal 8.813248e-02 -9.961086e-01 5.692548e-04
    outer loop
      vertex   9.367776e+01 -1.675169e+01 1.300000e+01
      vertex   9.381190e+01 -1.673696e+01 1.800000e+01
      vertex   9.347794e+01 -1.676651e+01 1.800000e+01
    endloop
  endfacet
  facet normal 6.338079e-02 -9.979893e-01 -4.255134e-04
    outer loop
      vertex   9.367776e+01 -1.675169e+01 1.300000e+01
      vertex   9.347794e+01 -1.676651e+01 1.800000e+01
      vertex   9.337716e+01 -1.677078e+01 1.300000e+01
    endloop
  endfacet
  facet normal 1.764848e-02 -9.998441e-01 4.978624e-04
    outer loop
      vertex   9.337716e+01 -1.677078e+01 1.300000e+01
      vertex   9.347794e+01 -1.676651e+01 1.800000e+01
      vertex   9.314272e+01 -1.677243e+01 1.800000e+01
    endloop
  endfacet
  facet normal -0.000000e+00 -9.999999e-01 -3.296746e-04
    outer loop
      vertex   9.337716e+01 -1.677078e+01 1.300000e+01
      vertex   9.314272e+01 -1.677243e+01 1.800000e+01
      vertex   9.307595e+01 -1.677078e+01 1.300000e+01
    endloop
  endfacet
  facet normal -5.292345e-02 -9.985985e-01 3.775784e-04
    outer loop
      vertex   9.307595e+01 -1.677078e+01 1.300000e+01
      vertex   9.314272e+01 -1.677243e+01 1.800000e+01
      vertex   9.280792e+01 -1.675468e+01 1.800000e+01
    endloop
  endfacet
  facet normal -6.338080e-02 -9.979894e-01 -1.849468e-04
    outer loop
      vertex   9.307595e+01 -1.677078e+01 1.300000e+01
      vertex   9.280792e+01 -1.675468e+01 1.800000e+01
      vertex   9.277534e+01 -1.675169e+01 1.300000e+01
    endloop
  endfacet
  facet normal -1.232317e-01 -9.923779e-01 2.084089e-04
    outer loop
      vertex   9.277534e+01 -1.675169e+01 1.300000e+01
      vertex   9.280792e+01 -1.675468e+01 1.800000e+01
      vertex   9.247521e+01 -1.671337e+01 1.800000e+01
    endloop
  endfacet
  facet normal -1.265067e-01 -9.919657e-01 8.662313e-06
    outer loop
      vertex   9.277534e+01 -1.675169e+01 1.300000e+01
      vertex   9.247521e+01 -1.671337e+01 1.800000e+01
      vertex   9.247655e+01 -1.671358e+01 1.300000e+01
    endloop
  endfacet
  facet normal -1.580361e-01 -9.874333e-01 -0.000000e+00
    outer loop
      vertex   9.247655e+01 -1.671358e+01 1.300000e+01
      vertex   9.247521e+01 -1.671337e+01 1.800000e+01
      vertex   9.247655e+01 -1.671358e+01 1.100000e+01
    endloop
  endfacet
  facet normal -1.926522e-01 -9.812671e-01 -6.829649e-06
    outer loop
      vertex   9.247655e+01 -1.671358e+01 1.100000e+01
      vertex   9.247521e+01 -1.671337e+01 1.800000e+01
      vertex   9.214750e+01 -1.664898e+01 1.100000e+01
    endloop
  endfacet
  facet normal -1.929261e-01 -9.812133e-01 6.488167e-06
    outer loop
      vertex   9.214750e+01 -1.664898e+01 1.100000e+01
      vertex   9.247521e+01 -1.671337e+01 1.800000e+01
      vertex   9.214624e+01 -1.664869e+01 1.800000e+01
    endloop
  endfacet
  facet normal -2.614037e-01 -9.652296e-01 -6.489487e-06
    outer loop
      vertex   9.214750e+01 -1.664898e+01 1.100000e+01
      vertex   9.214624e+01 -1.664869e+01 1.800000e+01
      vertex   9.182382e+01 -1.656132e+01 1.100000e+01
    endloop
  endfacet
  facet normal -2.616593e-01 -9.651603e-01 6.147935e-06
    outer loop
      vertex   9.182382e+01 -1.656132e+01 1.100000e+01
      vertex   9.214624e+01 -1.664869e+01 1.800000e+01
      vertex   9.182265e+01 -1.656096e+01 1.800000e+01
    endloop
  endfacet
  facet normal -3.288523e-01 -9.443814e-01 -6.149186e-06
    outer loop
      vertex   9.182382e+01 -1.656132e+01 1.100000e+01
      vertex   9.182265e+01 -1.656096e+01 1.800000e+01
      vertex   9.150714e+01 -1.645105e+01 1.100000e+01
    endloop
  endfacet
  facet normal -3.290889e-01 -9.442990e-01 5.807564e-06
    outer loop
      vertex   9.150714e+01 -1.645105e+01 1.100000e+01
      vertex   9.182265e+01 -1.656096e+01 1.800000e+01
      vertex   9.150606e+01 -1.645063e+01 1.800000e+01
    endloop
  endfacet
  facet normal -3.946620e-01 -9.188264e-01 -5.808745e-06
    outer loop
      vertex   9.150714e+01 -1.645105e+01 1.100000e+01
      vertex   9.150606e+01 -1.645063e+01 1.800000e+01
      vertex   9.119902e+01 -1.631870e+01 1.100000e+01
    endloop
  endfacet
  facet normal -3.948790e-01 -9.187331e-01 5.467054e-06
    outer loop
      vertex   9.119902e+01 -1.631870e+01 1.100000e+01
      vertex   9.150606e+01 -1.645063e+01 1.800000e+01
      vertex   9.119804e+01 -1.631824e+01 1.800000e+01
    endloop
  endfacet
  facet normal -4.585047e-01 -8.886920e-01 -5.468166e-06
    outer loop
      vertex   9.119902e+01 -1.631870e+01 1.100000e+01
      vertex   9.119804e+01 -1.631824e+01 1.800000e+01
      vertex   9.090101e+01 -1.616495e+01 1.100000e+01
    endloop
  endfacet
  facet normal -4.587018e-01 -8.885902e-01 5.126406e-06
    outer loop
      vertex   9.090101e+01 -1.616495e+01 1.100000e+01
      vertex   9.119804e+01 -1.631824e+01 1.800000e+01
      vertex   9.090012e+01 -1.616445e+01 1.800000e+01
    endloop
  endfacet
  facet normal -5.200622e-01 -8.541284e-01 -5.127448e-06
    outer loop
      vertex   9.090101e+01 -1.616495e+01 1.100000e+01
      vertex   9.090012e+01 -1.616445e+01 1.800000e+01
      vertex   9.061459e+01 -1.599055e+01 1.100000e+01
    endloop
  endfacet
  facet normal -5.202394e-01 -8.540204e-01 4.785618e-06
    outer loop
      vertex   9.061459e+01 -1.599055e+01 1.100000e+01
      vertex   9.090012e+01 -1.616445e+01 1.800000e+01
      vertex   9.061379e+01 -1.599003e+01 1.800000e+01
    endloop
  endfacet
  facet normal -5.790277e-01 -8.153079e-01 -4.786591e-06
    outer loop
      vertex   9.061459e+01 -1.599055e+01 1.100000e+01
      vertex   9.061379e+01 -1.599003e+01 1.800000e+01
      vertex   9.034118e+01 -1.579638e+01 1.100000e+01
    endloop
  endfacet
  facet normal -5.791853e-01 -8.151959e-01 4.444691e-06
    outer loop
      vertex   9.034118e+01 -1.579638e+01 1.100000e+01
      vertex   9.061379e+01 -1.599003e+01 1.800000e+01
      vertex   9.034048e+01 -1.579585e+01 1.800000e+01
    endloop
  endfacet
  facet normal -6.351074e-01 -7.724238e-01 -4.445595e-06
    outer loop
      vertex   9.034118e+01 -1.579638e+01 1.100000e+01
      vertex   9.034048e+01 -1.579585e+01 1.800000e+01
      vertex   9.008216e+01 -1.558341e+01 1.100000e+01
    endloop
  endfacet
  facet normal -6.352456e-01 -7.723102e-01 4.103626e-06
    outer loop
      vertex   9.008216e+01 -1.558341e+01 1.100000e+01
      vertex   9.034048e+01 -1.579585e+01 1.800000e+01
      vertex   9.008155e+01 -1.558287e+01 1.800000e+01
    endloop
  endfacet
  facet normal -6.880217e-01 -7.256901e-01 -4.104460e-06
    outer loop
      vertex   9.008216e+01 -1.558341e+01 1.100000e+01
      vertex   9.008155e+01 -1.558287e+01 1.800000e+01
      vertex   8.983881e+01 -1.535269e+01 1.100000e+01
    endloop
  endfacet
  facet normal -6.881412e-01 -7.255768e-01 3.762421e-06
    outer loop
      vertex   8.983881e+01 -1.535269e+01 1.100000e+01
      vertex   9.008155e+01 -1.558287e+01 1.800000e+01
      vertex   8.983829e+01 -1.535216e+01 1.800000e+01
    endloop
  endfacet
  facet normal -7.375070e-01 -6.753395e-01 -3.763185e-06
    outer loop
      vertex   8.983881e+01 -1.535269e+01 1.100000e+01
      vertex   8.983829e+01 -1.535216e+01 1.800000e+01
      vertex   8.961235e+01 -1.510538e+01 1.100000e+01
    endloop
  endfacet
  facet normal -7.376085e-01 -6.752287e-01 3.421078e-06
    outer loop
      vertex   8.961235e+01 -1.510538e+01 1.100000e+01
      vertex   8.983829e+01 -1.535216e+01 1.800000e+01
      vertex   8.961190e+01 -1.510486e+01 1.800000e+01
    endloop
  endfacet
  facet normal -7.833165e-01 -6.216231e-01 -3.421773e-06
    outer loop
      vertex   8.961235e+01 -1.510538e+01 1.100000e+01
      vertex   8.961190e+01 -1.510486e+01 1.800000e+01
      vertex   8.940389e+01 -1.484270e+01 1.100000e+01
    endloop
  endfacet
  facet normal -7.834010e-01 -6.215166e-01 3.079595e-06
    outer loop
      vertex   8.940389e+01 -1.484270e+01 1.100000e+01
      vertex   8.961190e+01 -1.510486e+01 1.800000e+01
      vertex   8.940353e+01 -1.484221e+01 1.800000e+01
    endloop
  endfacet
  facet normal -8.252220e-01 -5.648085e-01 -3.080221e-06
    outer loop
      vertex   8.940389e+01 -1.484270e+01 1.100000e+01
      vertex   8.940353e+01 -1.484221e+01 1.800000e+01
      vertex   8.921449e+01 -1.456597e+01 1.100000e+01
    endloop
  endfacet
  facet normal -8.252907e-01 -5.647081e-01 2.737974e-06
    outer loop
      vertex   8.921449e+01 -1.456597e+01 1.100000e+01
      vertex   8.940353e+01 -1.484221e+01 1.800000e+01
      vertex   8.921420e+01 -1.456551e+01 1.800000e+01
    endloop
  endfacet
  facet normal -8.630146e-01 -5.051789e-01 -2.738530e-06
    outer loop
      vertex   8.921449e+01 -1.456597e+01 1.100000e+01
      vertex   8.921420e+01 -1.456551e+01 1.800000e+01
      vertex   8.904509e+01 -1.427657e+01 1.100000e+01
    endloop
  endfacet
  facet normal -8.630689e-01 -5.050863e-01 2.396213e-06
    outer loop
      vertex   8.904509e+01 -1.427657e+01 1.100000e+01
      vertex   8.921420e+01 -1.456551e+01 1.800000e+01
      vertex   8.904486e+01 -1.427615e+01 1.800000e+01
    endloop
  endfacet
  facet normal -8.965060e-01 -4.430315e-01 -2.396700e-06
    outer loop
      vertex   8.904509e+01 -1.427657e+01 1.100000e+01
      vertex   8.904486e+01 -1.427615e+01 1.800000e+01
      vertex   8.889652e+01 -1.397594e+01 1.100000e+01
    endloop
  endfacet
  facet normal -8.965472e-01 -4.429481e-01 2.054314e-06
    outer loop
      vertex   8.889652e+01 -1.397594e+01 1.100000e+01
      vertex   8.904486e+01 -1.427615e+01 1.800000e+01
      vertex   8.889635e+01 -1.397557e+01 1.800000e+01
    endloop
  endfacet
  facet normal -9.255293e-01 -3.786761e-01 -2.054731e-06
    outer loop
      vertex   8.889652e+01 -1.397594e+01 1.100000e+01
      vertex   8.889635e+01 -1.397557e+01 1.800000e+01
      vertex   8.876954e+01 -1.366558e+01 1.100000e+01
    endloop
  endfacet
  facet normal -9.255591e-01 -3.786032e-01 1.712276e-06
    outer loop
      vertex   8.876954e+01 -1.366558e+01 1.100000e+01
      vertex   8.889635e+01 -1.397557e+01 1.800000e+01
      vertex   8.876942e+01 -1.366526e+01 1.800000e+01
    endloop
  endfacet
  facet normal -9.499397e-01 -3.124334e-01 -1.712623e-06
    outer loop
      vertex   8.876954e+01 -1.366558e+01 1.100000e+01
      vertex   8.876942e+01 -1.366526e+01 1.800000e+01
      vertex   8.866477e+01 -1.334703e+01 1.100000e+01
    endloop
  endfacet
  facet normal -9.499598e-01 -3.123722e-01 1.370099e-06
    outer loop
      vertex   8.866477e+01 -1.334703e+01 1.100000e+01
      vertex   8.876942e+01 -1.366526e+01 1.800000e+01
      vertex   8.866469e+01 -1.334677e+01 1.800000e+01
    endloop
  endfacet
  facet normal -9.696156e-01 -2.446335e-01 -1.370376e-06
    outer loop
      vertex   8.866477e+01 -1.334703e+01 1.100000e+01
      vertex   8.866469e+01 -1.334677e+01 1.800000e+01
      vertex   8.858273e+01 -1.302188e+01 1.100000e+01
    endloop
  endfacet
  facet normal -9.696279e-01 -2.445849e-01 1.027782e-06
    outer loop
      vertex   8.858273e+01 -1.302188e+01 1.100000e+01
      vertex   8.866469e+01 -1.334677e+01 1.800000e+01
      vertex   8.858269e+01 -1.302168e+01 1.800000e+01
    endloop
  endfacet
  facet normal -9.844590e-01 -1.756143e-01 -1.027991e-06
    outer loop
      vertex   8.858273e+01 -1.302188e+01 1.100000e+01
      vertex   8.858269e+01 -1.302168e+01 1.800000e+01
      vertex   8.852384e+01 -1.269175e+01 1.100000e+01
    endloop
  endfacet
  facet normal -9.844653e-01 -1.755791e-01 6.853272e-07
    outer loop
      vertex   8.852384e+01 -1.269175e+01 1.100000e+01
      vertex   8.858269e+01 -1.302168e+01 1.800000e+01
      vertex   8.852382e+01 -1.269162e+01 1.800000e+01
    endloop
  endfacet
  facet normal -9.943959e-01 -1.057199e-01 -6.854662e-07
    outer loop
      vertex   8.852384e+01 -1.269175e+01 1.100000e+01
      vertex   8.852382e+01 -1.269162e+01 1.800000e+01
      vertex   8.848839e+01 -1.235830e+01 1.100000e+01
    endloop
  endfacet
  facet normal -9.943982e-01 -1.056986e-01 3.427331e-07
    outer loop
      vertex   8.848839e+01 -1.235830e+01 1.100000e+01
      vertex   8.852382e+01 -1.269162e+01 1.800000e+01
      vertex   8.848839e+01 -1.235823e+01 1.800000e+01
    endloop
  endfacet
  facet normal -9.993768e-01 -3.529862e-02 -3.428026e-07
    outer loop
      vertex   8.848839e+01 -1.235830e+01 1.100000e+01
      vertex   8.848839e+01 -1.235823e+01 1.800000e+01
      vertex   8.847655e+01 -1.202317e+01 1.100000e+01
    endloop
  endfacet
  facet normal -9.993771e-01 -3.529146e-02 0.000000e+00
    outer loop
      vertex   8.847655e+01 -1.202317e+01 1.100000e+01
      vertex   8.848839e+01 -1.235823e+01 1.800000e+01
      vertex   8.847655e+01 -1.202317e+01 1.800000e+01
    endloop
  endfacet
  facet normal -9.993771e-01 3.529146e-02 0.000000e+00
    outer loop
      vertex   8.847655e+01 -1.202317e+01 1.100000e+01
      vertex   8.847655e+01 -1.202317e+01 1.800000e+01
      vertex   8.848839e+01 -1.168811e+01 1.800000e+01
    endloop
  endfacet
  facet normal 1.926522e-01 -9.812670e-01 -4.228527e-04
    outer loop
      vertex   9.397655e+01 -1.671358e+01 1.100000e+01
      vertex   9.430561e+01 -1.664898e+01 1.100000e+01
      vertex   9.414295e+01 -1.668393e+01 1.800000e+01
    endloop
  endfacet
  facet normal 2.274343e-01 -9.737933e-01 4.226826e-04
    outer loop
      vertex   9.414295e+01 -1.668393e+01 1.800000e+01
      vertex   9.430561e+01 -1.664898e+01 1.100000e+01
      vertex   9.446944e+01 -1.660768e+01 1.800000e+01
    endloop
  endfacet
  facet normal 2.614036e-01 -9.652295e-01 -4.228553e-04
    outer loop
      vertex   9.446944e+01 -1.660768e+01 1.800000e+01
      vertex   9.430561e+01 -1.664898e+01 1.100000e+01
      vertex   9.462929e+01 -1.656132e+01 1.100000e+01
    endloop
  endfacet
  facet normal 2.955582e-01 -9.553247e-01 4.226852e-04
    outer loop
      vertex   9.446944e+01 -1.660768e+01 1.800000e+01
      vertex   9.462929e+01 -1.656132e+01 1.100000e+01
      vertex   9.478973e+01 -1.650859e+01 1.800000e+01
    endloop
  endfacet
  facet normal 3.288523e-01 -9.443813e-01 -4.228578e-04
    outer loop
      vertex   9.478973e+01 -1.650859e+01 1.800000e+01
      vertex   9.462929e+01 -1.656132e+01 1.100000e+01
      vertex   9.494597e+01 -1.645105e+01 1.100000e+01
    endloop
  endfacet
  facet normal 3.622095e-01 -9.320966e-01 4.226876e-04
    outer loop
      vertex   9.478973e+01 -1.650859e+01 1.800000e+01
      vertex   9.494597e+01 -1.645105e+01 1.100000e+01
      vertex   9.510223e+01 -1.638715e+01 1.800000e+01
    endloop
  endfacet
  facet normal 3.946619e-01 -9.188263e-01 -4.228602e-04
    outer loop
      vertex   9.510223e+01 -1.638715e+01 1.800000e+01
      vertex   9.494597e+01 -1.645105e+01 1.100000e+01
      vertex   9.525409e+01 -1.631870e+01 1.100000e+01
    endloop
  endfacet
  facet normal 4.270564e-01 -9.042249e-01 4.226899e-04
    outer loop
      vertex   9.510223e+01 -1.638715e+01 1.800000e+01
      vertex   9.525409e+01 -1.631870e+01 1.100000e+01
      vertex   9.540539e+01 -1.624397e+01 1.800000e+01
    endloop
  endfacet
  facet normal 4.585046e-01 -8.886919e-01 -4.228624e-04
    outer loop
      vertex   9.540539e+01 -1.624397e+01 1.800000e+01
      vertex   9.525409e+01 -1.631870e+01 1.100000e+01
      vertex   9.555210e+01 -1.616495e+01 1.100000e+01
    endloop
  endfacet
  facet normal 4.897757e-01 -8.718484e-01 4.226921e-04
    outer loop
      vertex   9.540539e+01 -1.624397e+01 1.800000e+01
      vertex   9.555210e+01 -1.616495e+01 1.100000e+01
      vertex   9.569769e+01 -1.607977e+01 1.800000e+01
    endloop
  endfacet
  facet normal 5.200621e-01 -8.541283e-01 -4.228645e-04
    outer loop
      vertex   9.569769e+01 -1.607977e+01 1.800000e+01
      vertex   9.555210e+01 -1.616495e+01 1.100000e+01
      vertex   9.583852e+01 -1.599055e+01 1.100000e+01
    endloop
  endfacet
  facet normal 5.500550e-01 -8.351284e-01 4.226941e-04
    outer loop
      vertex   9.569769e+01 -1.607977e+01 1.800000e+01
      vertex   9.583852e+01 -1.599055e+01 1.100000e+01
      vertex   9.597768e+01 -1.589535e+01 1.800000e+01
    endloop
  endfacet
  facet normal 5.790277e-01 -8.153078e-01 -4.228665e-04
    outer loop
      vertex   9.597768e+01 -1.589535e+01 1.800000e+01
      vertex   9.583852e+01 -1.599055e+01 1.100000e+01
      vertex   9.611192e+01 -1.579638e+01 1.100000e+01
    endloop
  endfacet
  facet normal 6.075939e-01 -7.942478e-01 4.226960e-04
    outer loop
      vertex   9.597768e+01 -1.589535e+01 1.800000e+01
      vertex   9.611192e+01 -1.579638e+01 1.100000e+01
      vertex   9.624397e+01 -1.569164e+01 1.800000e+01
    endloop
  endfacet
  facet normal 6.351073e-01 -7.724238e-01 -4.228683e-04
    outer loop
      vertex   9.624397e+01 -1.569164e+01 1.800000e+01
      vertex   9.611192e+01 -1.579638e+01 1.100000e+01
      vertex   9.637095e+01 -1.558341e+01 1.100000e+01
    endloop
  endfacet
  facet normal 6.621058e-01 -7.494103e-01 4.226977e-04
    outer loop
      vertex   9.624397e+01 -1.569164e+01 1.800000e+01
      vertex   9.637095e+01 -1.558341e+01 1.100000e+01
      vertex   9.649522e+01 -1.546966e+01 1.800000e+01
    endloop
  endfacet
  facet normal 6.880217e-01 -7.256900e-01 -4.228699e-04
    outer loop
      vertex   9.649522e+01 -1.546966e+01 1.800000e+01
      vertex   9.637095e+01 -1.558341e+01 1.100000e+01
      vertex   9.661430e+01 -1.535269e+01 1.100000e+01
    endloop
  endfacet
  facet normal 7.133191e-01 -7.008393e-01 4.226993e-04
    outer loop
      vertex   9.649522e+01 -1.546966e+01 1.800000e+01
      vertex   9.661430e+01 -1.535269e+01 1.100000e+01
      vertex   9.673019e+01 -1.523050e+01 1.800000e+01
    endloop
  endfacet
  facet normal 7.375069e-01 -6.753395e-01 -4.228715e-04
    outer loop
      vertex   9.673019e+01 -1.523050e+01 1.800000e+01
      vertex   9.661430e+01 -1.535269e+01 1.100000e+01
      vertex   9.684076e+01 -1.510538e+01 1.100000e+01
    endloop
  endfacet
  facet normal 7.609787e-01 -6.487767e-01 4.227008e-04
    outer loop
      vertex   9.673019e+01 -1.523050e+01 1.800000e+01
      vertex   9.684076e+01 -1.510538e+01 1.100000e+01
      vertex   9.694771e+01 -1.497537e+01 1.800000e+01
    endloop
  endfacet
  facet normal 7.833164e-01 -6.216230e-01 -4.228729e-04
    outer loop
      vertex   9.694771e+01 -1.497537e+01 1.800000e+01
      vertex   9.684076e+01 -1.510538e+01 1.100000e+01
      vertex   9.704922e+01 -1.484270e+01 1.100000e+01
    endloop
  endfacet
  facet normal 8.048472e-01 -5.934820e-01 4.227021e-04
    outer loop
      vertex   9.694771e+01 -1.497537e+01 1.800000e+01
      vertex   9.704922e+01 -1.484270e+01 1.100000e+01
      vertex   9.714668e+01 -1.470553e+01 1.800000e+01
    endloop
  endfacet
  facet normal 8.252219e-01 -5.648084e-01 -4.228741e-04
    outer loop
      vertex   9.714668e+01 -1.470553e+01 1.800000e+01
      vertex   9.704922e+01 -1.484270e+01 1.100000e+01
      vertex   9.723862e+01 -1.456597e+01 1.100000e+01
    endloop
  endfacet
  facet normal 8.447059e-01 -5.352305e-01 4.227033e-04
    outer loop
      vertex   9.714668e+01 -1.470553e+01 1.800000e+01
      vertex   9.723862e+01 -1.456597e+01 1.100000e+01
      vertex   9.732613e+01 -1.442233e+01 1.800000e+01
    endloop
  endfacet
  facet normal 8.630146e-01 -5.051789e-01 -4.228752e-04
    outer loop
      vertex   9.732613e+01 -1.442233e+01 1.800000e+01
      vertex   9.723862e+01 -1.456597e+01 1.100000e+01
      vertex   9.740802e+01 -1.427657e+01 1.100000e+01
    endloop
  endfacet
  facet normal 8.803564e-01 -4.743126e-01 4.227043e-04
    outer loop
      vertex   9.732613e+01 -1.442233e+01 1.800000e+01
      vertex   9.740802e+01 -1.427657e+01 1.100000e+01
      vertex   9.748515e+01 -1.412717e+01 1.800000e+01
    endloop
  endfacet
  facet normal 8.965059e-01 -4.430315e-01 -4.228762e-04
    outer loop
      vertex   9.748515e+01 -1.412717e+01 1.800000e+01
      vertex   9.740802e+01 -1.427657e+01 1.100000e+01
      vertex   9.755659e+01 -1.397594e+01 1.100000e+01
    endloop
  endfacet
  facet normal 9.116210e-01 -4.110317e-01 4.227052e-04
    outer loop
      vertex   9.748515e+01 -1.412717e+01 1.800000e+01
      vertex   9.755659e+01 -1.397594e+01 1.100000e+01
      vertex   9.762296e+01 -1.382153e+01 1.800000e+01
    endloop
  endfacet
  facet normal 9.255292e-01 -3.786761e-01 -4.228770e-04
    outer loop
      vertex   9.762296e+01 -1.382153e+01 1.800000e+01
      vertex   9.755659e+01 -1.397594e+01 1.100000e+01
      vertex   9.768357e+01 -1.366558e+01 1.100000e+01
    endloop
  endfacet
  facet normal 9.383439e-01 -3.457030e-01 4.227060e-04
    outer loop
      vertex   9.762296e+01 -1.382153e+01 1.800000e+01
      vertex   9.768357e+01 -1.366558e+01 1.100000e+01
      vertex   9.773886e+01 -1.350694e+01 1.800000e+01
    endloop
  endfacet
  facet normal 9.499396e-01 -3.124333e-01 -4.228777e-04
    outer loop
      vertex   9.773886e+01 -1.350694e+01 1.800000e+01
      vertex   9.768357e+01 -1.366558e+01 1.100000e+01
      vertex   9.778834e+01 -1.334703e+01 1.100000e+01
    endloop
  endfacet
  facet normal 9.603920e-01 -2.786521e-01 4.227066e-04
    outer loop
      vertex   9.773886e+01 -1.350694e+01 1.800000e+01
      vertex   9.778834e+01 -1.334703e+01 1.100000e+01
      vertex   9.783229e+01 -1.318495e+01 1.800000e+01
    endloop
  endfacet
  facet normal 9.696155e-01 -2.446334e-01 -4.228783e-04
    outer loop
      vertex   9.783229e+01 -1.318495e+01 1.800000e+01
      vertex   9.778834e+01 -1.334703e+01 1.100000e+01
      vertex   9.787038e+01 -1.302188e+01 1.100000e+01
    endloop
  endfacet
  facet normal 9.776555e-01 -2.102129e-01 4.227071e-04
    outer loop
      vertex   9.783229e+01 -1.318495e+01 1.800000e+01
      vertex   9.787038e+01 -1.302188e+01 1.100000e+01
      vertex   9.790276e+01 -1.285717e+01 1.800000e+01
    endloop
  endfacet
  facet normal 9.844590e-01 -1.756143e-01 -4.228787e-04
    outer loop
      vertex   9.790276e+01 -1.285717e+01 1.800000e+01
      vertex   9.787038e+01 -1.302188e+01 1.100000e+01
      vertex   9.792927e+01 -1.269175e+01 1.100000e+01
    endloop
  endfacet
  facet normal 9.900484e-01 -1.407265e-01 4.227074e-04
    outer loop
      vertex   9.790276e+01 -1.285717e+01 1.800000e+01
      vertex   9.792927e+01 -1.269175e+01 1.100000e+01
      vertex   9.794995e+01 -1.252524e+01 1.800000e+01
    endloop
  endfacet
  facet normal 9.943959e-01 -1.057199e-01 -4.228790e-04
    outer loop
      vertex   9.794995e+01 -1.252524e+01 1.800000e+01
      vertex   9.792927e+01 -1.269175e+01 1.100000e+01
      vertex   9.796472e+01 -1.235830e+01 1.100000e+01
    endloop
  endfacet
  facet normal 9.975089e-01 -7.053895e-02 4.227076e-04
    outer loop
      vertex   9.794995e+01 -1.252524e+01 1.800000e+01
      vertex   9.796472e+01 -1.235830e+01 1.100000e+01
      vertex   9.797359e+01 -1.219080e+01 1.800000e+01
    endloop
  endfacet
  facet normal 9.993767e-01 -3.529861e-02 -4.228791e-04
    outer loop
      vertex   9.797359e+01 -1.219080e+01 1.800000e+01
      vertex   9.796472e+01 -1.235830e+01 1.100000e+01
      vertex   9.797655e+01 -1.202317e+01 1.100000e+01
    endloop
  endfacet
  facet normal 9.999999e-01 -0.000000e+00 4.227077e-04
    outer loop
      vertex   9.797359e+01 -1.219080e+01 1.800000e+01
      vertex   9.797655e+01 -1.202317e+01 1.100000e+01
      vertex   9.797359e+01 -1.185553e+01 1.800000e+01
    endloop
  endfacet
  facet normal 9.993767e-01 3.529861e-02 -4.228791e-04
    outer loop
      vertex   9.797359e+01 -1.185553e+01 1.800000e+01
      vertex   9.797655e+01 -1.202317e+01 1.100000e+01
      vertex   9.796472e+01 -1.168804e+01 1.100000e+01
    endloop
  endfacet
  facet normal 9.975089e-01 7.053895e-02 4.227076e-04
    outer loop
      vertex   9.797359e+01 -1.185553e+01 1.800000e+01
      vertex   9.796472e+01 -1.168804e+01 1.100000e+01
      vertex   9.794995e+01 -1.152110e+01 1.800000e+01
    endloop
  endfacet
  facet normal 9.943959e-01 1.057199e-01 -4.228790e-04
    outer loop
      vertex   9.794995e+01 -1.152110e+01 1.800000e+01
      vertex   9.796472e+01 -1.168804e+01 1.100000e+01
      vertex   9.792927e+01 -1.135458e+01 1.100000e+01
    endloop
  endfacet
  facet normal 9.900484e-01 1.407265e-01 4.227074e-04
    outer loop
      vertex   9.794995e+01 -1.152110e+01 1.800000e+01
      vertex   9.792927e+01 -1.135458e+01 1.100000e+01
      vertex   9.790276e+01 -1.118917e+01 1.800000e+01
    endloop
  endfacet
  facet normal 9.844590e-01 1.756143e-01 -4.228787e-04
    outer loop
      vertex   9.790276e+01 -1.118917e+01 1.800000e+01
      vertex   9.792927e+01 -1.135458e+01 1.100000e+01
      vertex   9.787038e+01 -1.102446e+01 1.100000e+01
    endloop
  endfacet
  facet normal 9.776555e-01 2.102129e-01 4.227071e-04
    outer loop
      vertex   9.790276e+01 -1.118917e+01 1.800000e+01
      vertex   9.787038e+01 -1.102446e+01 1.100000e+01
      vertex   9.783229e+01 -1.086139e+01 1.800000e+01
    endloop
  endfacet
  facet normal 9.696155e-01 2.446334e-01 -4.228783e-04
    outer loop
      vertex   9.783229e+01 -1.086139e+01 1.800000e+01
      vertex   9.787038e+01 -1.102446e+01 1.100000e+01
      vertex   9.778834e+01 -1.069931e+01 1.100000e+01
    endloop
  endfacet
  facet normal 9.603920e-01 2.786521e-01 4.227066e-04
    outer loop
      vertex   9.783229e+01 -1.086139e+01 1.800000e+01
      vertex   9.778834e+01 -1.069931e+01 1.100000e+01
      vertex   9.773886e+01 -1.053940e+01 1.800000e+01
    endloop
  endfacet
  facet normal 9.499396e-01 3.124333e-01 -4.228777e-04
    outer loop
      vertex   9.773886e+01 -1.053940e+01 1.800000e+01
      vertex   9.778834e+01 -1.069931e+01 1.100000e+01
      vertex   9.768357e+01 -1.038076e+01 1.100000e+01
    endloop
  endfacet
  facet normal 9.383439e-01 3.457030e-01 4.227060e-04
    outer loop
      vertex   9.773886e+01 -1.053940e+01 1.800000e+01
      vertex   9.768357e+01 -1.038076e+01 1.100000e+01
      vertex   9.762296e+01 -1.022480e+01 1.800000e+01
    endloop
  endfacet
  facet normal 9.255292e-01 3.786761e-01 -4.228770e-04
    outer loop
      vertex   9.762296e+01 -1.022480e+01 1.800000e+01
      vertex   9.768357e+01 -1.038076e+01 1.100000e+01
      vertex   9.755659e+01 -1.007040e+01 1.100000e+01
    endloop
  endfacet
  facet normal 9.116210e-01 4.110317e-01 4.227052e-04
    outer loop
      vertex   9.762296e+01 -1.022480e+01 1.800000e+01
      vertex   9.755659e+01 -1.007040e+01 1.100000e+01
      vertex   9.748515e+01 -9.919165e+00 1.800000e+01
    endloop
  endfacet
  facet normal 8.965059e-01 4.430315e-01 -4.228762e-04
    outer loop
      vertex   9.748515e+01 -9.919165e+00 1.800000e+01
      vertex   9.755659e+01 -1.007040e+01 1.100000e+01
      vertex   9.740802e+01 -9.769764e+00 1.100000e+01
    endloop
  endfacet
  facet normal 8.803564e-01 4.743126e-01 4.227043e-04
    outer loop
      vertex   9.748515e+01 -9.919165e+00 1.800000e+01
      vertex   9.740802e+01 -9.769764e+00 1.100000e+01
      vertex   9.732613e+01 -9.624009e+00 1.800000e+01
    endloop
  endfacet
  facet normal 8.630146e-01 5.051789e-01 -4.228752e-04
    outer loop
      vertex   9.732613e+01 -9.624009e+00 1.800000e+01
      vertex   9.740802e+01 -9.769764e+00 1.100000e+01
      vertex   9.723862e+01 -9.480363e+00 1.100000e+01
    endloop
  endfacet
  facet normal 8.447059e-01 5.352305e-01 4.227033e-04
    outer loop
      vertex   9.732613e+01 -9.624009e+00 1.800000e+01
      vertex   9.723862e+01 -9.480363e+00 1.100000e+01
      vertex   9.714668e+01 -9.340805e+00 1.800000e+01
    endloop
  endfacet
  facet normal 8.252219e-01 5.648084e-01 -4.228741e-04
    outer loop
      vertex   9.714668e+01 -9.340805e+00 1.800000e+01
      vertex   9.723862e+01 -9.480363e+00 1.100000e+01
      vertex   9.704922e+01 -9.203636e+00 1.100000e+01
    endloop
  endfacet
  facet normal 8.048472e-01 5.934820e-01 4.227021e-04
    outer loop
      vertex   9.714668e+01 -9.340805e+00 1.800000e+01
      vertex   9.704922e+01 -9.203636e+00 1.100000e+01
      vertex   9.694771e+01 -9.070965e+00 1.800000e+01
    endloop
  endfacet
  facet normal 7.833164e-01 6.216230e-01 -4.228729e-04
    outer loop
      vertex   9.694771e+01 -9.070965e+00 1.800000e+01
      vertex   9.704922e+01 -9.203636e+00 1.100000e+01
      vertex   9.684076e+01 -8.940961e+00 1.100000e+01
    endloop
  endfacet
  facet normal 7.609787e-01 6.487767e-01 4.227008e-04
    outer loop
      vertex   9.694771e+01 -9.070965e+00 1.800000e+01
      vertex   9.684076e+01 -8.940961e+00 1.100000e+01
      vertex   9.673019e+01 -8.815832e+00 1.800000e+01
    endloop
  endfacet
  facet normal 7.375069e-01 6.753395e-01 -4.228715e-04
    outer loop
      vertex   9.673019e+01 -8.815832e+00 1.800000e+01
      vertex   9.684076e+01 -8.940961e+00 1.100000e+01
      vertex   9.661430e+01 -8.693648e+00 1.100000e+01
    endloop
  endfacet
  facet normal 7.133191e-01 7.008393e-01 4.226993e-04
    outer loop
      vertex   9.673019e+01 -8.815832e+00 1.800000e+01
      vertex   9.661430e+01 -8.693648e+00 1.100000e+01
      vertex   9.649522e+01 -8.576678e+00 1.800000e+01
    endloop
  endfacet
  facet normal 6.880217e-01 7.256900e-01 -4.228699e-04
    outer loop
      vertex   9.649522e+01 -8.576678e+00 1.800000e+01
      vertex   9.661430e+01 -8.693648e+00 1.100000e+01
      vertex   9.637095e+01 -8.462929e+00 1.100000e+01
    endloop
  endfacet
  facet normal 6.621058e-01 7.494103e-01 4.226977e-04
    outer loop
      vertex   9.649522e+01 -8.576678e+00 1.800000e+01
      vertex   9.637095e+01 -8.462929e+00 1.100000e+01
      vertex   9.624397e+01 -8.354695e+00 1.800000e+01
    endloop
  endfacet
  facet normal 6.351073e-01 7.724238e-01 -4.228683e-04
    outer loop
      vertex   9.624397e+01 -8.354695e+00 1.800000e+01
      vertex   9.637095e+01 -8.462929e+00 1.100000e+01
      vertex   9.611192e+01 -8.249954e+00 1.100000e+01
    endloop
  endfacet
  facet normal 6.075939e-01 7.942478e-01 4.226960e-04
    outer loop
      vertex   9.624397e+01 -8.354695e+00 1.800000e+01
      vertex   9.611192e+01 -8.249954e+00 1.100000e+01
      vertex   9.597768e+01 -8.150987e+00 1.800000e+01
    endloop
  endfacet
  facet normal 5.790277e-01 8.153078e-01 -4.228665e-04
    outer loop
      vertex   9.597768e+01 -8.150987e+00 1.800000e+01
      vertex   9.611192e+01 -8.249954e+00 1.100000e+01
      vertex   9.583852e+01 -8.055785e+00 1.100000e+01
    endloop
  endfacet
  facet normal 5.500550e-01 8.351284e-01 4.226941e-04
    outer loop
      vertex   9.597768e+01 -8.150987e+00 1.800000e+01
      vertex   9.583852e+01 -8.055785e+00 1.100000e+01
      vertex   9.569769e+01 -7.966571e+00 1.800000e+01
    endloop
  endfacet
  facet normal 5.200621e-01 8.541283e-01 -4.228645e-04
    outer loop
      vertex   9.569769e+01 -7.966571e+00 1.800000e+01
      vertex   9.583852e+01 -8.055785e+00 1.100000e+01
      vertex   9.555210e+01 -7.881389e+00 1.100000e+01
    endloop
  endfacet
  facet normal 4.897757e-01 8.718484e-01 4.226921e-04
    outer loop
      vertex   9.569769e+01 -7.966571e+00 1.800000e+01
      vertex   9.555210e+01 -7.881389e+00 1.100000e+01
      vertex   9.540539e+01 -7.802365e+00 1.800000e+01
    endloop
  endfacet
  facet normal 4.585046e-01 8.886919e-01 -4.228624e-04
    outer loop
      vertex   9.540539e+01 -7.802365e+00 1.800000e+01
      vertex   9.555210e+01 -7.881389e+00 1.100000e+01
      vertex   9.525409e+01 -7.727635e+00 1.100000e+01
    endloop
  endfacet
  facet normal 4.270564e-01 9.042249e-01 4.226899e-04
    outer loop
      vertex   9.540539e+01 -7.802365e+00 1.800000e+01
      vertex   9.525409e+01 -7.727635e+00 1.100000e+01
      vertex   9.510223e+01 -7.659186e+00 1.800000e+01
    endloop
  endfacet
  facet normal 3.946619e-01 9.188263e-01 -4.228602e-04
    outer loop
      vertex   9.510223e+01 -7.659186e+00 1.800000e+01
      vertex   9.525409e+01 -7.727635e+00 1.100000e+01
      vertex   9.494597e+01 -7.595290e+00 1.100000e+01
    endloop
  endfacet
  facet normal 3.622095e-01 9.320966e-01 4.226876e-04
    outer loop
      vertex   9.510223e+01 -7.659186e+00 1.800000e+01
      vertex   9.494597e+01 -7.595290e+00 1.100000e+01
      vertex   9.478973e+01 -7.537748e+00 1.800000e+01
    endloop
  endfacet
  facet normal 3.288523e-01 9.443813e-01 -4.228578e-04
    outer loop
      vertex   9.478973e+01 -7.537748e+00 1.800000e+01
      vertex   9.494597e+01 -7.595290e+00 1.100000e+01
      vertex   9.462929e+01 -7.485014e+00 1.100000e+01
    endloop
  endfacet
  facet normal 2.955582e-01 9.553247e-01 4.226852e-04
    outer loop
      vertex   9.478973e+01 -7.537748e+00 1.800000e+01
      vertex   9.462929e+01 -7.485014e+00 1.100000e+01
      vertex   9.446944e+01 -7.438657e+00 1.800000e+01
    endloop
  endfacet
  facet normal 2.614036e-01 9.652295e-01 -4.228553e-04
    outer loop
      vertex   9.446944e+01 -7.438657e+00 1.800000e+01
      vertex   9.462929e+01 -7.485014e+00 1.100000e+01
      vertex   9.430561e+01 -7.397356e+00 1.100000e+01
    endloop
  endfacet
  facet normal 2.274343e-01 9.737933e-01 4.226826e-04
    outer loop
      vertex   9.446944e+01 -7.438657e+00 1.800000e+01
      vertex   9.430561e+01 -7.397356e+00 1.100000e+01
      vertex   9.414295e+01 -7.362405e+00 1.800000e+01
    endloop
  endfacet
  facet normal 1.926522e-01 9.812670e-01 -4.228527e-04
    outer loop
      vertex   9.414295e+01 -7.362405e+00 1.800000e+01
      vertex   9.430561e+01 -7.397356e+00 1.100000e+01
      vertex   9.397655e+01 -7.332752e+00 1.100000e+01
    endloop
  endfacet
  facet normal 1.754382e-01 9.844905e-01 0.000000e+00
    outer loop
      vertex   9.414295e+01 -7.362405e+00 1.800000e+01
      vertex   9.397655e+01 -7.332752e+00 1.100000e+01
      vertex   9.397655e+01 -7.332752e+00 1.300000e+01
    endloop
  endfacet
  facet normal 1.581774e-01 9.874105e-01 5.917518e-04
    outer loop
      vertex   9.414295e+01 -7.362405e+00 1.800000e+01
      vertex   9.397655e+01 -7.332752e+00 1.300000e+01
      vertex   9.381190e+01 -7.309373e+00 1.800000e+01
    endloop
  endfacet
  facet normal 1.265067e-01 9.919656e-01 -4.724584e-04
    outer loop
      vertex   9.381190e+01 -7.309373e+00 1.800000e+01
      vertex   9.397655e+01 -7.332752e+00 1.300000e+01
      vertex   9.367776e+01 -7.294647e+00 1.300000e+01
    endloop
  endfacet
  facet normal 8.813248e-02 9.961086e-01 5.692548e-04
    outer loop
      vertex   9.381190e+01 -7.309373e+00 1.800000e+01
      vertex   9.367776e+01 -7.294647e+00 1.300000e+01
      vertex   9.347794e+01 -7.279825e+00 1.800000e+01
    endloop
  endfacet
  facet normal 6.338079e-02 9.979893e-01 -4.255134e-04
    outer loop
      vertex   9.347794e+01 -7.279825e+00 1.800000e+01
      vertex   9.367776e+01 -7.294647e+00 1.300000e+01
      vertex   9.337716e+01 -7.275556e+00 1.300000e+01
    endloop
  endfacet
  facet normal 1.764848e-02 9.998441e-01 4.978624e-04
    outer loop
      vertex   9.347794e+01 -7.279825e+00 1.800000e+01
      vertex   9.337716e+01 -7.275556e+00 1.300000e+01
      vertex   9.314272e+01 -7.273908e+00 1.800000e+01
    endloop
  endfacet
  facet normal 0.000000e+00 9.999999e-01 -3.296746e-04
    outer loop
      vertex   9.314272e+01 -7.273908e+00 1.800000e+01
      vertex   9.337716e+01 -7.275556e+00 1.300000e+01
      vertex   9.307595e+01 -7.275556e+00 1.300000e+01
    endloop
  endfacet
  facet normal -5.292345e-02 9.985985e-01 3.775784e-04
    outer loop
      vertex   9.314272e+01 -7.273908e+00 1.800000e+01
      vertex   9.307595e+01 -7.275556e+00 1.300000e+01
      vertex   9.280792e+01 -7.291652e+00 1.800000e+01
    endloop
  endfacet
  facet normal -6.338080e-02 9.979894e-01 -1.849468e-04
    outer loop
      vertex   9.280792e+01 -7.291652e+00 1.800000e+01
      vertex   9.307595e+01 -7.275556e+00 1.300000e+01
      vertex   9.277534e+01 -7.294647e+00 1.300000e+01
    endloop
  endfacet
  facet normal -1.232317e-01 9.923779e-01 2.084089e-04
    outer loop
      vertex   9.280792e+01 -7.291652e+00 1.800000e+01
      vertex   9.277534e+01 -7.294647e+00 1.300000e+01
      vertex   9.247521e+01 -7.332967e+00 1.800000e+01
    endloop
  endfacet
  facet normal -1.265067e-01 9.919657e-01 8.662313e-06
    outer loop
      vertex   9.247521e+01 -7.332967e+00 1.800000e+01
      vertex   9.277534e+01 -7.294647e+00 1.300000e+01
      vertex   9.247655e+01 -7.332752e+00 1.300000e+01
    endloop
  endfacet
  facet normal -1.580361e-01 9.874333e-01 0.000000e+00
    outer loop
      vertex   9.247521e+01 -7.332967e+00 1.800000e+01
      vertex   9.247655e+01 -7.332752e+00 1.300000e+01
      vertex   9.247655e+01 -7.332752e+00 1.100000e+01
    endloop
  endfacet
  facet normal -1.926522e-01 9.812671e-01 -6.829649e-06
    outer loop
      vertex   9.247655e+01 -7.332752e+00 1.100000e+01
      vertex   9.214750e+01 -7.397356e+00 1.100000e+01
      vertex   9.247521e+01 -7.332967e+00 1.800000e+01
    endloop
  endfacet
  facet normal -1.929261e-01 9.812133e-01 6.488167e-06
    outer loop
      vertex   9.247521e+01 -7.332967e+00 1.800000e+01
      vertex   9.214750e+01 -7.397356e+00 1.100000e+01
      vertex   9.214624e+01 -7.397650e+00 1.800000e+01
    endloop
  endfacet
  facet normal -2.614037e-01 9.652296e-01 -6.489487e-06
    outer loop
      vertex   9.214624e+01 -7.397650e+00 1.800000e+01
      vertex   9.214750e+01 -7.397356e+00 1.100000e+01
      vertex   9.182382e+01 -7.485014e+00 1.100000e+01
    endloop
  endfacet
  facet normal -2.616593e-01 9.651603e-01 6.147935e-06
    outer loop
      vertex   9.214624e+01 -7.397650e+00 1.800000e+01
      vertex   9.182382e+01 -7.485014e+00 1.100000e+01
      vertex   9.182265e+01 -7.485376e+00 1.800000e+01
    endloop
  endfacet
  facet normal -3.288523e-01 9.443814e-01 -6.149186e-06
    outer loop
      vertex   9.182265e+01 -7.485376e+00 1.800000e+01
      vertex   9.182382e+01 -7.485014e+00 1.100000e+01
      vertex   9.150714e+01 -7.595290e+00 1.100000e+01
    endloop
  endfacet
  facet normal -3.290889e-01 9.442990e-01 5.807564e-06
    outer loop
      vertex   9.182265e+01 -7.485376e+00 1.800000e+01
      vertex   9.150714e+01 -7.595290e+00 1.100000e+01
      vertex   9.150606e+01 -7.595709e+00 1.800000e+01
    endloop
  endfacet
  facet normal -3.946620e-01 9.188264e-01 -5.808745e-06
    outer loop
      vertex   9.150606e+01 -7.595709e+00 1.800000e+01
      vertex   9.150714e+01 -7.595290e+00 1.100000e+01
      vertex   9.119902e+01 -7.727635e+00 1.100000e+01
    endloop
  endfacet
  facet normal -3.948790e-01 9.187331e-01 5.467054e-06
    outer loop
      vertex   9.150606e+01 -7.595709e+00 1.800000e+01
      vertex   9.119902e+01 -7.727635e+00 1.100000e+01
      vertex   9.119804e+01 -7.728100e+00 1.800000e+01
    endloop
  endfacet
  facet normal -4.585047e-01 8.886920e-01 -5.468166e-06
    outer loop
      vertex   9.119804e+01 -7.728100e+00 1.800000e+01
      vertex   9.119902e+01 -7.727635e+00 1.100000e+01
      vertex   9.090101e+01 -7.881389e+00 1.100000e+01
    endloop
  endfacet
  facet normal -4.587018e-01 8.885902e-01 5.126406e-06
    outer loop
      vertex   9.119804e+01 -7.728100e+00 1.800000e+01
      vertex   9.090101e+01 -7.881389e+00 1.100000e+01
      vertex   9.090012e+01 -7.881888e+00 1.800000e+01
    endloop
  endfacet
  facet normal -5.200622e-01 8.541284e-01 -5.127448e-06
    outer loop
      vertex   9.090012e+01 -7.881888e+00 1.800000e+01
      vertex   9.090101e+01 -7.881389e+00 1.100000e+01
      vertex   9.061459e+01 -8.055785e+00 1.100000e+01
    endloop
  endfacet
  facet normal -5.202394e-01 8.540204e-01 4.785618e-06
    outer loop
      vertex   9.090012e+01 -7.881888e+00 1.800000e+01
      vertex   9.061459e+01 -8.055785e+00 1.100000e+01
      vertex   9.061379e+01 -8.056308e+00 1.800000e+01
    endloop
  endfacet
  facet normal -5.790277e-01 8.153079e-01 -4.786591e-06
    outer loop
      vertex   9.061379e+01 -8.056308e+00 1.800000e+01
      vertex   9.061459e+01 -8.055785e+00 1.100000e+01
      vertex   9.034118e+01 -8.249954e+00 1.100000e+01
    endloop
  endfacet
  facet normal -5.791853e-01 8.151959e-01 4.444691e-06
    outer loop
      vertex   9.061379e+01 -8.056308e+00 1.800000e+01
      vertex   9.034118e+01 -8.249954e+00 1.100000e+01
      vertex   9.034048e+01 -8.250491e+00 1.800000e+01
    endloop
  endfacet
  facet normal -6.351074e-01 7.724238e-01 -4.445595e-06
    outer loop
      vertex   9.034048e+01 -8.250491e+00 1.800000e+01
      vertex   9.034118e+01 -8.249954e+00 1.100000e+01
      vertex   9.008216e+01 -8.462929e+00 1.100000e+01
    endloop
  endfacet
  facet normal -6.352456e-01 7.723102e-01 4.103626e-06
    outer loop
      vertex   9.034048e+01 -8.250491e+00 1.800000e+01
      vertex   9.008216e+01 -8.462929e+00 1.100000e+01
      vertex   9.008155e+01 -8.463469e+00 1.800000e+01
    endloop
  endfacet
  facet normal -6.880217e-01 7.256901e-01 -4.104460e-06
    outer loop
      vertex   9.008155e+01 -8.463469e+00 1.800000e+01
      vertex   9.008216e+01 -8.462929e+00 1.100000e+01
      vertex   8.983881e+01 -8.693648e+00 1.100000e+01
    endloop
  endfacet
  facet normal -6.881412e-01 7.255768e-01 3.762421e-06
    outer loop
      vertex   9.008155e+01 -8.463469e+00 1.800000e+01
      vertex   8.983881e+01 -8.693648e+00 1.100000e+01
      vertex   8.983829e+01 -8.694181e+00 1.800000e+01
    endloop
  endfacet
  facet normal -7.375070e-01 6.753395e-01 -3.763185e-06
    outer loop
      vertex   8.983829e+01 -8.694181e+00 1.800000e+01
      vertex   8.983881e+01 -8.693648e+00 1.100000e+01
      vertex   8.961235e+01 -8.940961e+00 1.100000e+01
    endloop
  endfacet
  facet normal -7.376085e-01 6.752287e-01 3.421078e-06
    outer loop
      vertex   8.983829e+01 -8.694181e+00 1.800000e+01
      vertex   8.961235e+01 -8.940961e+00 1.100000e+01
      vertex   8.961190e+01 -8.941479e+00 1.800000e+01
    endloop
  endfacet
  facet normal -7.833165e-01 6.216231e-01 -3.421773e-06
    outer loop
      vertex   8.961190e+01 -8.941479e+00 1.800000e+01
      vertex   8.961235e+01 -8.940961e+00 1.100000e+01
      vertex   8.940389e+01 -9.203636e+00 1.100000e+01
    endloop
  endfacet
  facet normal -7.834010e-01 6.215166e-01 3.079595e-06
    outer loop
      vertex   8.961190e+01 -8.941479e+00 1.800000e+01
      vertex   8.940389e+01 -9.203636e+00 1.100000e+01
      vertex   8.940353e+01 -9.204129e+00 1.800000e+01
    endloop
  endfacet
  facet normal -8.252220e-01 5.648085e-01 -3.080221e-06
    outer loop
      vertex   8.940353e+01 -9.204129e+00 1.800000e+01
      vertex   8.940389e+01 -9.203636e+00 1.100000e+01
      vertex   8.921449e+01 -9.480363e+00 1.100000e+01
    endloop
  endfacet
  facet normal -8.252907e-01 5.647081e-01 2.737974e-06
    outer loop
      vertex   8.940353e+01 -9.204129e+00 1.800000e+01
      vertex   8.921449e+01 -9.480363e+00 1.100000e+01
      vertex   8.921420e+01 -9.480823e+00 1.800000e+01
    endloop
  endfacet
  facet normal -8.630146e-01 5.051789e-01 -2.738530e-06
    outer loop
      vertex   8.921420e+01 -9.480823e+00 1.800000e+01
      vertex   8.921449e+01 -9.480363e+00 1.100000e+01
      vertex   8.904509e+01 -9.769764e+00 1.100000e+01
    endloop
  endfacet
  facet normal -8.630689e-01 5.050863e-01 2.396213e-06
    outer loop
      vertex   8.921420e+01 -9.480823e+00 1.800000e+01
      vertex   8.904509e+01 -9.769764e+00 1.100000e+01
      vertex   8.904486e+01 -9.770183e+00 1.800000e+01
    endloop
  endfacet
  facet normal -8.965060e-01 4.430315e-01 -2.396700e-06
    outer loop
      vertex   8.904486e+01 -9.770183e+00 1.800000e+01
      vertex   8.904509e+01 -9.769764e+00 1.100000e+01
      vertex   8.889652e+01 -1.007040e+01 1.100000e+01
    endloop
  endfacet
  facet normal -8.965472e-01 4.429481e-01 2.054314e-06
    outer loop
      vertex   8.904486e+01 -9.770183e+00 1.800000e+01
      vertex   8.889652e+01 -1.007040e+01 1.100000e+01
      vertex   8.889635e+01 -1.007077e+01 1.800000e+01
    endloop
  endfacet
  facet normal -9.255293e-01 3.786761e-01 -2.054731e-06
    outer loop
      vertex   8.889635e+01 -1.007077e+01 1.800000e+01
      vertex   8.889652e+01 -1.007040e+01 1.100000e+01
      vertex   8.876954e+01 -1.038076e+01 1.100000e+01
    endloop
  endfacet
  facet normal -9.255591e-01 3.786032e-01 1.712276e-06
    outer loop
      vertex   8.889635e+01 -1.007077e+01 1.800000e+01
      vertex   8.876954e+01 -1.038076e+01 1.100000e+01
      vertex   8.876942e+01 -1.038108e+01 1.800000e+01
    endloop
  endfacet
  facet normal -9.499397e-01 3.124334e-01 -1.712623e-06
    outer loop
      vertex   8.876942e+01 -1.038108e+01 1.800000e+01
      vertex   8.876954e+01 -1.038076e+01 1.100000e+01
      vertex   8.866477e+01 -1.069931e+01 1.100000e+01
    endloop
  endfacet
  facet normal -9.499598e-01 3.123722e-01 1.370099e-06
    outer loop
      vertex   8.876942e+01 -1.038108e+01 1.800000e+01
      vertex   8.866477e+01 -1.069931e+01 1.100000e+01
      vertex   8.866469e+01 -1.069957e+01 1.800000e+01
    endloop
  endfacet
  facet normal -9.696156e-01 2.446335e-01 -1.370376e-06
    outer loop
      vertex   8.866469e+01 -1.069957e+01 1.800000e+01
      vertex   8.866477e+01 -1.069931e+01 1.100000e+01
      vertex   8.858273e+01 -1.102446e+01 1.100000e+01
    endloop
  endfacet
  facet normal -9.696279e-01 2.445849e-01 1.027782e-06
    outer loop
      vertex   8.866469e+01 -1.069957e+01 1.800000e+01
      vertex   8.858273e+01 -1.102446e+01 1.100000e+01
      vertex   8.858269e+01 -1.102466e+01 1.800000e+01
    endloop
  endfacet
  facet normal -9.844590e-01 1.756143e-01 -1.027991e-06
    outer loop
      vertex   8.858269e+01 -1.102466e+01 1.800000e+01
      vertex   8.858273e+01 -1.102446e+01 1.100000e+01
      vertex   8.852384e+01 -1.135458e+01 1.100000e+01
    endloop
  endfacet
  facet normal -9.844653e-01 1.755791e-01 6.853272e-07
    outer loop
      vertex   8.858269e+01 -1.102466e+01 1.800000e+01
      vertex   8.852384e+01 -1.135458e+01 1.100000e+01
      vertex   8.852382e+01 -1.135472e+01 1.800000e+01
    endloop
  endfacet
  facet normal -9.943959e-01 1.057199e-01 -6.854662e-07
    outer loop
      vertex   8.852382e+01 -1.135472e+01 1.800000e+01
      vertex   8.852384e+01 -1.135458e+01 1.100000e+01
      vertex   8.848839e+01 -1.168804e+01 1.100000e+01
    endloop
  endfacet
  facet normal -9.943982e-01 1.056986e-01 3.427331e-07
    outer loop
      vertex   8.852382e+01 -1.135472e+01 1.800000e+01
      vertex   8.848839e+01 -1.168804e+01 1.100000e+01
      vertex   8.848839e+01 -1.168811e+01 1.800000e+01
    endloop
  endfacet
  facet normal -9.993768e-01 3.529862e-02 -3.428026e-07
    outer loop
      vertex   8.848839e+01 -1.168811e+01 1.800000e+01
      vertex   8.848839e+01 -1.168804e+01 1.100000e+01
      vertex   8.847655e+01 -1.202317e+01 1.100000e+01
    endloop
  endfacet
endsolid
